<svg width="248" height="293" viewBox="0 0 248 293" fill="none" xmlns="http://www.w3.org/2000/svg">
<g clip-path="url(#clip0_1_2)">
<mask id="path-1-inside-1_1_2" fill="white">
<path fill-rule="evenodd" clip-rule="evenodd" d="M99.4165 2.82791C98.108 0.690748 95.4195 -0.147657 93.1281 0.86686L71.8731 10.2776C69.5817 11.2921 68.3952 13.8461 69.0979 16.2515L75.6649 38.7315C71.4681 41.1841 67.4764 43.9451 63.7213 46.9831L40.7328 33.7908C38.5593 32.5435 35.7982 33.0978 34.2745 35.0873L20.1409 53.5421C18.6172 55.5316 18.8016 58.3417 20.5722 60.1151L38.5462 78.1165C36.3888 82.3846 34.5461 86.8363 33.0481 91.4416L6.79961 92.6321C4.29625 92.7457 2.26359 94.6948 2.04518 97.1912L0.0192331 120.348C-0.199174 122.844 1.46414 125.117 3.90975 125.663L29.0325 131.278C29.6238 136.543 30.6489 141.679 32.0716 146.649L10.2949 161.389C8.21968 162.794 7.5048 165.517 8.6228 167.76L18.9934 188.564C20.1114 190.806 22.717 191.875 25.0878 191.063L51.1961 182.125C68.7616 202.631 94.9501 215.642 124.202 215.642L124.202 189.335C84.0511 189.335 51.5025 158.58 51.5025 120.642C51.5025 82.7047 84.0511 51.9501 124.202 51.9501L124.202 25.6425C120.663 25.6425 117.169 25.8329 113.729 26.204L99.4165 2.82791Z"/>
</mask>
<path fill-rule="evenodd" clip-rule="evenodd" d="M99.4165 2.82791C98.108 0.690748 95.4195 -0.147657 93.1281 0.86686L71.8731 10.2776C69.5817 11.2921 68.3952 13.8461 69.0979 16.2515L75.6649 38.7315C71.4681 41.1841 67.4764 43.9451 63.7213 46.9831L40.7328 33.7908C38.5593 32.5435 35.7982 33.0978 34.2745 35.0873L20.1409 53.5421C18.6172 55.5316 18.8016 58.3417 20.5722 60.1151L38.5462 78.1165C36.3888 82.3846 34.5461 86.8363 33.0481 91.4416L6.79961 92.6321C4.29625 92.7457 2.26359 94.6948 2.04518 97.1912L0.0192331 120.348C-0.199174 122.844 1.46414 125.117 3.90975 125.663L29.0325 131.278C29.6238 136.543 30.6489 141.679 32.0716 146.649L10.2949 161.389C8.21968 162.794 7.5048 165.517 8.6228 167.76L18.9934 188.564C20.1114 190.806 22.717 191.875 25.0878 191.063L51.1961 182.125C68.7616 202.631 94.9501 215.642 124.202 215.642L124.202 189.335C84.0511 189.335 51.5025 158.58 51.5025 120.642C51.5025 82.7047 84.0511 51.9501 124.202 51.9501L124.202 25.6425C120.663 25.6425 117.169 25.8329 113.729 26.204L99.4165 2.82791Z" fill="#FE0000"/>
<path d="M93.1281 0.86686L94.3427 3.61002V3.61002L93.1281 0.86686ZM99.4165 2.82791L96.858 4.39443V4.39444L99.4165 2.82791ZM71.8731 10.2776L70.6585 7.53441V7.53441L71.8731 10.2776ZM69.0979 16.2515L66.2182 17.0927V17.0927L69.0979 16.2515ZM75.6649 38.7315L77.1786 41.3216L79.2016 40.1393L78.5445 37.8902L75.6649 38.7315ZM63.7213 46.9831L62.2281 49.5851L64.0105 50.608L65.6082 49.3154L63.7213 46.9831ZM40.7328 33.7908L42.226 31.1888V31.1888L40.7328 33.7908ZM34.2745 35.0873L31.8928 33.2633L34.2745 35.0873ZM20.1409 53.5421L17.7591 51.718L20.1409 53.5421ZM20.5722 60.1151L22.6952 57.9954H22.6952L20.5722 60.1151ZM38.5462 78.1165L41.2236 79.4699L42.2027 77.5328L40.6691 75.9968L38.5462 78.1165ZM33.0481 91.4416L33.184 94.4385L35.2586 94.3445L35.901 92.3696L33.0481 91.4416ZM6.79961 92.6321L6.93554 95.6291H6.93554L6.79961 92.6321ZM2.04518 97.1912L-0.943399 96.9298H-0.9434L2.04518 97.1912ZM0.0192331 120.348L-2.96935 120.086L0.0192331 120.348ZM3.90975 125.663L4.56402 122.736H4.56402L3.90975 125.663ZM29.0325 131.278L32.0138 130.943L31.775 128.816L29.6868 128.35L29.0325 131.278ZM32.0716 146.649L33.7532 149.133L35.5543 147.914L34.9558 145.823L32.0716 146.649ZM10.2949 161.389L8.61328 158.904H8.61327L10.2949 161.389ZM8.6228 167.76L11.3077 166.422L8.6228 167.76ZM18.9934 188.564L16.3086 189.902L18.9934 188.564ZM25.0878 191.063L26.0595 193.902L26.0595 193.902L25.0878 191.063ZM51.1961 182.125L53.4745 180.173L52.1503 178.627L50.2244 179.287L51.1961 182.125ZM124.202 215.642V218.642H127.202V215.642H124.202ZM124.202 189.335H127.202V186.335H124.202V189.335ZM124.202 51.9501V54.9501H127.202V51.9501H124.202ZM124.202 25.6425L127.202 25.6425V22.6425H124.202V25.6425ZM113.729 26.204L111.171 27.7705L112.163 29.3905L114.051 29.1867L113.729 26.204ZM94.3427 3.61002C95.2592 3.20421 96.3346 3.53957 96.858 4.39443L101.975 1.26138C99.8814 -2.15807 95.5798 -3.49952 91.9136 -1.87629L94.3427 3.61002ZM73.0876 13.0207L94.3427 3.61002L91.9136 -1.8763L70.6585 7.53441L73.0876 13.0207ZM71.9775 15.4103C71.6965 14.4481 72.1711 13.4265 73.0876 13.0207L70.6585 7.53441C66.9923 9.15763 65.094 13.2441 66.2182 17.0927L71.9775 15.4103ZM78.5445 37.8902L71.9775 15.4103L66.2182 17.0927L72.7852 39.5727L78.5445 37.8902ZM74.1512 36.1413C69.8231 38.6707 65.7067 41.518 61.8344 44.6508L65.6082 49.3154C69.2461 46.3722 73.1131 43.6975 77.1786 41.3216L74.1512 36.1413ZM65.2145 44.3811L42.226 31.1888L39.2396 36.3928L62.2281 49.5851L65.2145 44.3811ZM42.226 31.1888C38.7484 29.1932 34.3307 30.08 31.8928 33.2633L36.6563 36.9114C37.2658 36.1156 38.3702 35.8939 39.2396 36.3928L42.226 31.1888ZM31.8928 33.2633L17.7591 51.718L22.5226 55.3662L36.6563 36.9114L31.8928 33.2633ZM17.7591 51.718C15.3212 54.9012 15.6163 59.3974 18.4493 62.2347L22.6952 57.9954C21.9869 57.286 21.9132 56.162 22.5226 55.3662L17.7591 51.718ZM18.4493 62.2347L36.4233 80.2362L40.6691 75.9968L22.6952 57.9954L18.4493 62.2347ZM35.8688 76.7632C33.6428 81.167 31.7412 85.7608 30.1952 90.5137L35.901 92.3696C37.351 87.9117 39.1349 83.6022 41.2236 79.4699L35.8688 76.7632ZM32.9122 88.4447L6.66369 89.6352L6.93554 95.6291L33.184 94.4385L32.9122 88.4447ZM6.66369 89.6352C2.6583 89.8169 -0.593948 92.9355 -0.943399 96.9298L5.03377 97.4527C5.12113 96.4541 5.93419 95.6745 6.93554 95.6291L6.66369 89.6352ZM-0.9434 96.9298L-2.96935 120.086L3.00782 120.609L5.03377 97.4527L-0.9434 96.9298ZM-2.96935 120.086C-3.3188 124.081 -0.657511 127.717 3.25549 128.591L4.56402 122.736C3.58578 122.517 2.92045 121.608 3.00782 120.609L-2.96935 120.086ZM3.25548 128.591L28.3782 134.205L29.6868 128.35L4.56402 122.736L3.25548 128.591ZM26.0512 131.612C26.6613 137.045 27.7191 142.345 29.1875 147.474L34.9558 145.823C33.5787 141.013 32.5863 136.041 32.0138 130.943L26.0512 131.612ZM30.39 144.164L8.61328 158.904L11.9765 163.873L33.7532 149.133L30.39 144.164ZM8.61327 158.904C5.29292 161.152 4.14911 165.51 5.93792 169.099L11.3077 166.422C10.8605 165.525 11.1464 164.435 11.9765 163.873L8.61327 158.904ZM5.93792 169.099L16.3086 189.902L21.6783 187.225L11.3077 166.422L5.93792 169.099ZM16.3086 189.902C18.0974 193.49 22.2662 195.2 26.0595 193.902L24.1161 188.225C23.1677 188.55 22.1255 188.122 21.6783 187.225L16.3086 189.902ZM26.0595 193.902L52.1678 184.963L50.2244 179.287L24.1161 188.225L26.0595 193.902ZM48.9177 184.076C67.0319 205.224 94.0419 218.642 124.202 218.642V212.642C95.8583 212.642 70.4913 200.039 53.4745 180.173L48.9177 184.076ZM127.202 215.642L127.202 189.335H121.202L121.202 215.642H127.202ZM124.202 186.335C85.5455 186.335 54.5025 156.765 54.5025 120.642H48.5025C48.5025 160.395 82.5568 192.335 124.202 192.335V186.335ZM54.5025 120.642C54.5025 84.5196 85.5455 54.9501 124.202 54.9501V48.9501C82.5568 48.9501 48.5025 80.8899 48.5025 120.642H54.5025ZM127.202 51.9501L127.202 25.6425L121.202 25.6425L121.202 51.9501H127.202ZM124.202 22.6425C120.555 22.6425 116.954 22.8387 113.407 23.2213L114.051 29.1867C117.384 28.8271 120.771 28.6425 124.202 28.6425V22.6425ZM96.858 4.39444L111.171 27.7705L116.288 24.6375L101.975 1.26138L96.858 4.39444Z" fill="black" mask="url(#path-1-inside-1_1_2)"/>
<mask id="path-3-inside-2_1_2" fill="white">
<path fill-rule="evenodd" clip-rule="evenodd" d="M146.916 2.39003C148.234 0.258049 150.93 -0.582837 153.224 0.422601L174.765 9.86579C177.059 10.8712 178.242 13.4128 177.534 15.8124L170.781 38.701C174.914 41.1082 178.849 43.813 182.555 46.7859L206.202 33.35C208.384 32.1101 211.159 32.665 212.693 34.6477L226.986 53.1257C228.52 55.1084 228.337 57.9061 226.56 59.6688L208.001 78.0717C210.102 82.2134 211.905 86.5281 213.384 90.9886L240.488 92.2058C242.995 92.3183 245.033 94.2699 245.254 96.7685L247.299 119.915C247.52 122.413 245.855 124.686 243.406 125.227L217.594 130.939C217.03 136.113 216.048 141.163 214.679 146.055L236.947 160.978C239.028 162.373 239.74 165.088 238.612 167.327L228.133 188.14C227.006 190.38 224.387 191.451 222.01 190.645L195.692 181.724C178.091 202.462 151.701 215.642 122.202 215.642L122.202 189.335C162.431 189.335 195.043 158.58 195.043 120.642C195.043 82.7047 162.431 51.9501 122.202 51.9501L122.202 25.6424C125.586 25.6424 128.928 25.8159 132.221 26.1542C132.241 26.1211 132.261 26.088 132.281 26.0552L146.916 2.39003Z"/>
</mask>
<path fill-rule="evenodd" clip-rule="evenodd" d="M146.916 2.39003C148.234 0.258049 150.93 -0.582837 153.224 0.422601L174.765 9.86579C177.059 10.8712 178.242 13.4128 177.534 15.8124L170.781 38.701C174.914 41.1082 178.849 43.813 182.555 46.7859L206.202 33.35C208.384 32.1101 211.159 32.665 212.693 34.6477L226.986 53.1257C228.52 55.1084 228.337 57.9061 226.56 59.6688L208.001 78.0717C210.102 82.2134 211.905 86.5281 213.384 90.9886L240.488 92.2058C242.995 92.3183 245.033 94.2699 245.254 96.7685L247.299 119.915C247.52 122.413 245.855 124.686 243.406 125.227L217.594 130.939C217.03 136.113 216.048 141.163 214.679 146.055L236.947 160.978C239.028 162.373 239.74 165.088 238.612 167.327L228.133 188.14C227.006 190.38 224.387 191.451 222.01 190.645L195.692 181.724C178.091 202.462 151.701 215.642 122.202 215.642L122.202 189.335C162.431 189.335 195.043 158.58 195.043 120.642C195.043 82.7047 162.431 51.9501 122.202 51.9501L122.202 25.6424C125.586 25.6424 128.928 25.8159 132.221 26.1542C132.241 26.1211 132.261 26.088 132.281 26.0552L146.916 2.39003Z" fill="#FEA500"/>
<path d="M153.224 0.422601L154.428 -2.32499L153.224 0.422601ZM146.916 2.39003L144.364 0.812166L144.364 0.812167L146.916 2.39003ZM174.765 9.86579L173.561 12.6134L174.765 9.86579ZM177.534 15.8124L180.412 16.6614L177.534 15.8124ZM170.781 38.701L167.904 37.8521L167.238 40.1091L169.271 41.2934L170.781 38.701ZM182.555 46.7859L180.678 49.1261L182.267 50.4003L184.037 49.3943L182.555 46.7859ZM206.202 33.35L207.684 35.9583L206.202 33.35ZM212.693 34.6477L210.32 36.4832L212.693 34.6477ZM226.986 53.1257L229.359 51.2902L226.986 53.1257ZM226.56 59.6688L228.672 61.799V61.799L226.56 59.6688ZM208.001 78.0717L205.889 75.9415L204.338 77.4799L205.326 79.4286L208.001 78.0717ZM213.384 90.9886L210.536 91.9327L211.186 93.8929L213.249 93.9856L213.384 90.9886ZM240.488 92.2058L240.623 89.2088H240.623L240.488 92.2058ZM245.254 96.7685L248.242 96.5044L245.254 96.7685ZM247.299 119.915L250.287 119.651V119.651L247.299 119.915ZM243.406 125.227L244.054 128.157H244.054L243.406 125.227ZM217.594 130.939L216.946 128.009L214.844 128.474L214.611 130.614L217.594 130.939ZM214.679 146.055L211.79 145.247L211.205 147.338L213.009 148.547L214.679 146.055ZM236.947 160.978L235.277 163.47L236.947 160.978ZM238.612 167.327L241.292 168.677L238.612 167.327ZM228.133 188.14L225.454 186.791V186.791L228.133 188.14ZM222.01 190.645L222.973 187.804H222.973L222.01 190.645ZM195.692 181.724L196.655 178.883L194.724 178.228L193.404 179.783L195.692 181.724ZM122.202 215.642H119.202L119.202 218.642H122.202V215.642ZM122.202 189.335V186.335H119.202L119.202 189.335H122.202ZM122.202 51.9501H119.202L119.202 54.9501H122.202V51.9501ZM122.202 25.6424V22.6424H119.202L119.202 25.6424H122.202ZM132.221 26.1542L131.915 29.1385L133.832 29.3354L134.808 27.6744L132.221 26.1542ZM132.281 26.0552L134.833 27.633L132.281 26.0552ZM154.428 -2.32499C150.764 -3.93128 146.467 -2.58885 144.364 0.812166L149.467 3.96789C150.001 3.10495 151.096 2.76561 152.019 3.17019L154.428 -2.32499ZM175.97 7.1182L154.428 -2.32499L152.019 3.17019L173.561 12.6134L175.97 7.1182ZM180.412 16.6614C181.548 12.8105 179.645 8.7293 175.97 7.1182L173.561 12.6134C174.473 13.0132 174.937 14.0151 174.657 14.9634L180.412 16.6614ZM173.658 39.55L180.412 16.6614L174.657 14.9634L167.904 37.8521L173.658 39.55ZM184.432 44.4457C180.61 41.3802 176.553 38.591 172.291 36.1087L169.271 41.2934C173.275 43.6254 177.087 46.2459 180.678 49.1261L184.432 44.4457ZM184.037 49.3943L207.684 35.9583L204.72 30.7416L181.073 44.1776L184.037 49.3943ZM207.684 35.9583C208.57 35.4547 209.702 35.6839 210.32 36.4832L215.066 32.8122C212.617 29.6461 208.198 28.7655 204.72 30.7416L207.684 35.9583ZM210.32 36.4832L224.613 54.9612L229.359 51.2902L215.066 32.8122L210.32 36.4832ZM224.613 54.9612C225.222 55.7481 225.147 56.8445 224.447 57.5386L228.672 61.799C231.527 58.9676 231.817 54.4687 229.359 51.2902L224.613 54.9612ZM224.447 57.5386L205.889 75.9415L210.114 80.2019L228.672 61.799L224.447 57.5386ZM216.231 90.0445C214.705 85.441 212.844 80.9884 210.677 76.7149L205.326 79.4286C207.359 83.4384 209.105 87.6153 210.536 91.9327L216.231 90.0445ZM213.249 93.9856L240.354 95.2028L240.623 89.2088L213.518 87.9916L213.249 93.9856ZM240.354 95.2028C241.359 95.2479 242.177 96.0317 242.265 97.0326L248.242 96.5044C247.889 92.508 244.63 89.3888 240.623 89.2088L240.354 95.2028ZM242.265 97.0326L244.311 120.179L250.287 119.651L248.242 96.5044L242.265 97.0326ZM244.311 120.179C244.399 121.177 243.735 122.082 242.758 122.298L244.054 128.157C247.975 127.289 250.641 123.65 250.287 119.651L244.311 120.179ZM242.758 122.298L216.946 128.009L218.242 133.868L244.054 128.157L242.758 122.298ZM217.569 146.863C218.981 141.814 219.995 136.602 220.576 131.263L214.611 130.614C214.066 135.624 213.115 140.512 211.79 145.247L217.569 146.863ZM213.009 148.547L235.277 163.47L238.617 158.486L216.35 143.563L213.009 148.547ZM235.277 163.47C236.098 164.021 236.381 165.088 235.933 165.978L241.292 168.677C243.099 165.087 241.957 160.724 238.617 158.486L235.277 163.47ZM235.933 165.978L225.454 186.791L230.813 189.49L241.292 168.677L235.933 165.978ZM225.454 186.791C225 187.693 223.936 188.131 222.973 187.804L221.047 193.487C224.838 194.772 229.012 193.067 230.813 189.49L225.454 186.791ZM222.973 187.804L196.655 178.883L194.729 184.565L221.047 193.487L222.973 187.804ZM122.202 218.642C152.613 218.642 179.829 205.05 197.979 183.665L193.404 179.783C176.353 199.873 150.789 212.642 122.202 212.642V218.642ZM119.202 189.335L119.202 215.642H125.202L125.202 189.335H119.202ZM192.043 120.642C192.043 156.76 160.942 186.335 122.202 186.335V192.335C163.919 192.335 198.043 160.4 198.043 120.642H192.043ZM122.202 54.9501C160.942 54.9501 192.043 84.5249 192.043 120.642H198.043C198.043 80.8846 163.919 48.9501 122.202 48.9501V54.9501ZM119.202 25.6424L119.202 51.9501H125.202L125.202 25.6424H119.202ZM132.528 23.1699C129.133 22.8211 125.688 22.6424 122.202 22.6424V28.6424C125.483 28.6424 128.723 28.8106 131.915 29.1385L132.528 23.1699ZM129.73 24.4773C129.697 24.5293 129.666 24.5816 129.635 24.634L134.808 27.6744C134.816 27.6605 134.824 27.6468 134.833 27.633L129.73 24.4773ZM144.364 0.812167L129.73 24.4773L134.833 27.633L149.467 3.96789L144.364 0.812167Z" fill="black" mask="url(#path-3-inside-2_1_2)"/>
<mask id="path-5-inside-3_1_2" fill="white">
<path fill-rule="evenodd" clip-rule="evenodd" d="M137.503 131.655C146.281 126.506 152.202 116.764 152.202 105.593C152.202 89.0519 139.218 75.6425 123.202 75.6425C107.186 75.6425 94.2019 89.0519 94.2019 105.593C94.2019 116.764 100.123 126.506 108.901 131.655L110.202 138.642H136.202L137.503 131.655Z"/>
</mask>
<path fill-rule="evenodd" clip-rule="evenodd" d="M137.503 131.655C146.281 126.506 152.202 116.764 152.202 105.593C152.202 89.0519 139.218 75.6425 123.202 75.6425C107.186 75.6425 94.2019 89.0519 94.2019 105.593C94.2019 116.764 100.123 126.506 108.901 131.655L110.202 138.642H136.202L137.503 131.655Z" fill="#FFDF58"/>
<path d="M137.503 131.655L136.491 129.93L135.704 130.392L135.537 131.289L137.503 131.655ZM108.901 131.655L110.867 131.289L110.7 130.392L109.913 129.93L108.901 131.655ZM110.202 138.642L108.236 139.009L108.54 140.642H110.202V138.642ZM136.202 138.642V140.642H137.864L138.168 139.009L136.202 138.642ZM150.202 105.593C150.202 116.047 144.663 125.136 136.491 129.93L138.515 133.38C147.898 127.876 154.202 117.481 154.202 105.593H150.202ZM123.202 77.6425C138.053 77.6425 150.202 90.0952 150.202 105.593H154.202C154.202 88.0086 140.383 73.6425 123.202 73.6425V77.6425ZM96.2019 105.593C96.2019 90.0952 108.351 77.6425 123.202 77.6425V73.6425C106.021 73.6425 92.2019 88.0086 92.2019 105.593H96.2019ZM109.913 129.93C101.741 125.136 96.2019 116.047 96.2019 105.593H92.2019C92.2019 117.481 98.5055 127.876 107.889 133.38L109.913 129.93ZM112.168 138.276L110.867 131.289L106.935 132.021L108.236 139.009L112.168 138.276ZM136.202 136.642H110.202V140.642H136.202V136.642ZM135.537 131.289L134.236 138.276L138.168 139.009L139.469 132.021L135.537 131.289Z" fill="black" mask="url(#path-5-inside-3_1_2)"/>
<mask id="path-7-inside-4_1_2" fill="white">
<path fill-rule="evenodd" clip-rule="evenodd" d="M138.202 136.642H108.202V156.642H114.313L117.916 163.128C118.093 163.446 118.427 163.642 118.79 163.642H127.614C127.977 163.642 128.311 163.446 128.488 163.128L132.091 156.642H138.202V136.642Z"/>
</mask>
<path fill-rule="evenodd" clip-rule="evenodd" d="M138.202 136.642H108.202V156.642H114.313L117.916 163.128C118.093 163.446 118.427 163.642 118.79 163.642H127.614C127.977 163.642 128.311 163.446 128.488 163.128L132.091 156.642H138.202V136.642Z" fill="#CBDDDD"/>
<path d="M108.202 136.642V134.642H106.202V136.642H108.202ZM138.202 136.642H140.202V134.642H138.202V136.642ZM108.202 156.642H106.202V158.642H108.202V156.642ZM114.313 156.642L116.061 155.671L115.49 154.642H114.313V156.642ZM117.916 163.128L116.168 164.099L116.168 164.099L117.916 163.128ZM128.488 163.128L130.236 164.099L128.488 163.128ZM132.091 156.642V154.642H130.914L130.343 155.671L132.091 156.642ZM138.202 156.642V158.642H140.202V156.642H138.202ZM108.202 138.642H138.202V134.642H108.202V138.642ZM110.202 156.642V136.642H106.202V156.642H110.202ZM114.313 154.642H108.202V158.642H114.313V154.642ZM119.665 162.157L116.061 155.671L112.565 157.614L116.168 164.099L119.665 162.157ZM118.79 161.642C119.154 161.642 119.488 161.839 119.665 162.157L116.168 164.099C116.697 165.052 117.701 165.642 118.79 165.642V161.642ZM127.614 161.642H118.79V165.642H127.614V161.642ZM126.739 162.157C126.916 161.839 127.25 161.642 127.614 161.642V165.642C128.703 165.642 129.707 165.052 130.236 164.099L126.739 162.157ZM130.343 155.671L126.739 162.157L130.236 164.099L133.839 157.614L130.343 155.671ZM138.202 154.642H132.091V158.642H138.202V154.642ZM136.202 136.642V156.642H140.202V136.642H136.202Z" fill="black" mask="url(#path-7-inside-4_1_2)"/>
<path fill-rule="evenodd" clip-rule="evenodd" d="M108.202 142.722V141.642C111.834 143.144 115.434 144.004 118.846 144.414C119.034 144.437 119.193 144.56 119.26 144.737C119.394 145.086 119.112 145.454 118.74 145.409C115.359 145.004 111.798 144.167 108.202 142.722ZM108.202 149.194V148.117C111.253 149.352 116.057 150.723 121.391 151.147C121.585 151.162 121.754 151.287 121.823 151.47C121.953 151.811 121.687 152.173 121.323 152.144L121.312 152.143C116.083 151.728 111.351 150.423 108.202 149.194ZM138.202 148.258V149.381C135.255 150.843 132.098 151.664 128.943 152.034C128.649 152.069 128.393 151.837 128.393 151.54C128.393 151.284 128.587 151.069 128.841 151.039C132.056 150.66 135.254 149.801 138.202 148.258ZM138.202 142.186V143.262C135.979 144.125 132.773 144.998 128.944 145.433C128.649 145.467 128.393 145.235 128.393 144.939C128.393 144.682 128.587 144.467 128.842 144.438C132.792 143.989 136.054 143.064 138.202 142.186Z" fill="black"/>
<path d="M119.202 129.142C121.202 133.542 120.035 136.309 119.202 137.142H125.702C124.902 133.542 126.035 130.309 126.702 129.142C128.202 126.642 129.202 124.142 132.202 118.642C135.202 113.142 133.202 112.142 132.202 112.642C131.202 113.142 130.702 113.642 128.202 116.142L128.202 116.142C126.202 118.142 125.035 116.976 124.702 116.142C123.869 114.976 121.902 113.342 120.702 116.142C119.502 118.942 117.869 117.309 117.202 116.142C117.202 116.142 115.202 113.442 113.202 112.642C110.702 111.642 109.702 115.642 113.202 118.642C116.702 121.642 116.702 123.642 119.202 129.142Z" stroke="black"/>
<path fill-rule="evenodd" clip-rule="evenodd" d="M121.793 62.0275C121.793 61.2626 122.413 60.6425 123.178 60.6425C123.943 60.6425 124.563 61.2626 124.563 62.0275V70.1084C124.563 70.8734 123.943 71.4935 123.178 71.4935C122.413 71.4935 121.793 70.8734 121.793 70.1084V62.0275ZM103.682 63.9513C102.975 64.1806 102.684 64.899 103.031 65.5559L107.074 73.2023C107.421 73.8591 108.275 74.2057 108.982 73.9764C109.689 73.747 109.98 73.0286 109.633 72.3718L105.59 64.7254C105.243 64.0685 104.388 63.722 103.682 63.9513ZM88.6076 72.2608C88.0667 72.6845 88.0667 73.3716 88.6076 73.7953L96.4426 79.9336C96.9835 80.3574 97.8605 80.3574 98.4014 79.9336C98.9423 79.5098 98.9423 78.8228 98.4014 78.399L90.5664 72.2608C90.0255 71.837 89.1485 71.837 88.6076 72.2608ZM143.373 65.9469C143.72 65.2901 143.429 64.5717 142.722 64.3423C142.016 64.113 141.161 64.4596 140.814 65.1164L136.771 72.7628C136.424 73.4197 136.715 74.138 137.422 74.3674C138.129 74.5967 138.983 74.2502 139.33 73.5933L143.373 65.9469ZM157.796 74.1864C158.337 73.7626 158.337 73.0756 157.796 72.6518C157.255 72.228 156.378 72.228 155.838 72.6518L148.003 78.7901C147.462 79.2138 147.462 79.9009 148.003 80.3246C148.543 80.7484 149.42 80.7484 149.961 80.3246L157.796 74.1864Z" fill="black"/>
<mask id="path-12-inside-5_1_2" fill="white">
<path fill-rule="evenodd" clip-rule="evenodd" d="M73.7019 159.642C87.1601 159.642 99.3638 164.742 108.287 173.017C108.813 173.505 109.487 173.806 110.203 173.85L123.202 174.642L136.201 173.85C136.917 173.806 137.591 173.505 138.117 173.017C147.04 164.742 159.244 159.642 172.702 159.642C199.795 159.642 221.804 180.309 222.197 205.945C222.201 206.25 222.248 206.554 222.341 206.844L232.337 238.163C234.184 242.782 235.202 247.84 235.202 253.142C235.202 274.958 217.965 292.642 196.702 292.642C177.44 292.642 161.481 278.129 158.649 259.179C158.564 258.61 158.331 258.07 157.961 257.629L153.872 252.754C153.327 252.104 152.531 251.715 151.683 251.684L123.202 250.642L94.7206 251.684C93.8726 251.715 93.0773 252.104 92.5319 252.754L88.4425 257.629C88.0727 258.07 87.8402 258.61 87.7551 259.179C84.9225 278.129 68.9642 292.642 49.7019 292.642C28.439 292.642 11.2019 274.958 11.2019 253.142C11.2019 247.84 12.2202 242.782 14.067 238.163L24.0629 206.844C24.1555 206.554 24.2026 206.25 24.2073 205.945C24.5998 180.309 46.6089 159.642 73.7019 159.642Z"/>
</mask>
<path fill-rule="evenodd" clip-rule="evenodd" d="M73.7019 159.642C87.1601 159.642 99.3638 164.742 108.287 173.017C108.813 173.505 109.487 173.806 110.203 173.85L123.202 174.642L136.201 173.85C136.917 173.806 137.591 173.505 138.117 173.017C147.04 164.742 159.244 159.642 172.702 159.642C199.795 159.642 221.804 180.309 222.197 205.945C222.201 206.25 222.248 206.554 222.341 206.844L232.337 238.163C234.184 242.782 235.202 247.84 235.202 253.142C235.202 274.958 217.965 292.642 196.702 292.642C177.44 292.642 161.481 278.129 158.649 259.179C158.564 258.61 158.331 258.07 157.961 257.629L153.872 252.754C153.327 252.104 152.531 251.715 151.683 251.684L123.202 250.642L94.7206 251.684C93.8726 251.715 93.0773 252.104 92.5319 252.754L88.4425 257.629C88.0727 258.07 87.8402 258.61 87.7551 259.179C84.9225 278.129 68.9642 292.642 49.7019 292.642C28.439 292.642 11.2019 274.958 11.2019 253.142C11.2019 247.84 12.2202 242.782 14.067 238.163L24.0629 206.844C24.1555 206.554 24.2026 206.25 24.2073 205.945C24.5998 180.309 46.6089 159.642 73.7019 159.642Z" fill="#007AFF"/>
<path d="M123.202 174.642L123.019 177.637L123.202 177.648L123.385 177.637L123.202 174.642ZM232.337 238.163L229.479 239.075L229.511 239.177L229.551 239.276L232.337 238.163ZM123.202 250.642L123.312 247.644L123.202 247.64L123.092 247.644L123.202 250.642ZM14.067 238.163L16.8526 239.276L16.8924 239.177L16.9249 239.075L14.067 238.163ZM24.0629 206.844L21.205 205.932L24.0629 206.844ZM24.2073 205.945L21.2076 205.9L24.2073 205.945ZM88.4425 257.629L90.7409 259.557L88.4425 257.629ZM87.7551 259.179L84.7881 258.736L87.7551 259.179ZM94.7206 251.684L94.611 248.686L94.7206 251.684ZM92.5319 252.754L94.8303 254.682L92.5319 252.754ZM158.649 259.179L161.616 258.736L158.649 259.179ZM157.961 257.629L155.663 259.557L157.961 257.629ZM136.201 173.85L136.019 170.855L136.201 173.85ZM138.117 173.017L140.157 175.217L138.117 173.017ZM153.872 252.754L156.17 250.826L153.872 252.754ZM151.683 251.684L151.574 254.682L151.683 251.684ZM222.197 205.945L225.196 205.9L222.197 205.945ZM222.341 206.844L219.483 207.756L222.341 206.844ZM108.287 173.017L106.247 175.217L108.287 173.017ZM110.327 170.817C100.856 162.034 87.926 156.642 73.7019 156.642V162.642C86.3941 162.642 97.8717 167.45 106.247 175.217L110.327 170.817ZM123.385 171.648L110.385 170.855L110.02 176.844L123.019 177.637L123.385 171.648ZM123.385 177.637L136.384 176.844L136.019 170.855L123.019 171.648L123.385 177.637ZM140.157 175.217C148.532 167.45 160.01 162.642 172.702 162.642V156.642C158.478 156.642 145.548 162.034 136.077 170.817L140.157 175.217ZM172.702 162.642C198.299 162.642 218.832 182.133 219.197 205.991L225.196 205.9C224.777 178.486 201.291 156.642 172.702 156.642V162.642ZM219.483 207.756L229.479 239.075L235.195 237.25L225.199 205.932L219.483 207.756ZM229.551 239.276C231.258 243.546 232.202 248.227 232.202 253.142H238.202C238.202 247.454 237.109 242.018 235.123 237.049L229.551 239.276ZM232.202 253.142C232.202 273.374 216.236 289.642 196.702 289.642V295.642C219.694 295.642 238.202 276.542 238.202 253.142H232.202ZM196.702 289.642C179.004 289.642 164.241 276.296 161.616 258.736L155.682 259.623C158.722 279.962 175.875 295.642 196.702 295.642V289.642ZM160.26 255.701L156.17 250.826L151.574 254.682L155.663 259.557L160.26 255.701ZM151.793 248.686L123.312 247.644L123.092 253.64L151.574 254.682L151.793 248.686ZM94.8303 254.682L123.312 253.64L123.092 247.644L94.611 248.686L94.8303 254.682ZM90.7409 259.557L94.8303 254.682L90.2335 250.826L86.1441 255.701L90.7409 259.557ZM49.7019 295.642C70.5287 295.642 87.6818 279.962 90.7222 259.623L84.7881 258.736C82.1632 276.296 67.3997 289.642 49.7019 289.642V295.642ZM8.20193 253.142C8.20193 276.542 26.7101 295.642 49.7019 295.642V289.642C30.1679 289.642 14.2019 273.374 14.2019 253.142H8.20193ZM11.2813 237.049C9.29485 242.018 8.20193 247.454 8.20193 253.142H14.2019C14.2019 248.227 15.1455 243.546 16.8526 239.276L11.2813 237.049ZM21.205 205.932L11.209 237.25L16.9249 239.075L26.9209 207.756L21.205 205.932ZM73.7019 156.642C45.1126 156.642 21.6273 178.486 21.2076 205.9L27.2069 205.991C27.5722 182.133 48.1053 162.642 73.7019 162.642V156.642ZM26.9209 207.756C27.1081 207.17 27.198 206.572 27.2069 205.991L21.2076 205.9C21.2074 205.912 21.2063 205.922 21.2053 205.929C21.2043 205.935 21.2037 205.936 21.205 205.932L26.9209 207.756ZM86.1441 255.701C85.3963 256.593 84.9496 257.656 84.7881 258.736L90.7222 259.623C90.7262 259.596 90.7328 259.576 90.7379 259.565C90.7427 259.554 90.7451 259.552 90.7409 259.557L86.1441 255.701ZM94.611 248.686C92.9148 248.749 91.3243 249.526 90.2335 250.826L94.8303 254.682L94.611 248.686ZM161.616 258.736C161.454 257.656 161.008 256.593 160.26 255.701L155.663 259.557C155.659 259.552 155.661 259.554 155.666 259.565C155.671 259.576 155.678 259.596 155.682 259.623L161.616 258.736ZM136.384 176.844C137.828 176.756 139.149 176.151 140.157 175.217L136.077 170.817C136.033 170.858 136.007 170.856 136.019 170.855L136.384 176.844ZM156.17 250.826C155.08 249.526 153.489 248.749 151.793 248.686L151.574 254.682L156.17 250.826ZM219.197 205.991C219.206 206.572 219.296 207.17 219.483 207.756L225.199 205.932C225.2 205.936 225.2 205.935 225.199 205.929C225.198 205.922 225.196 205.912 225.196 205.9L219.197 205.991ZM106.247 175.217C107.255 176.151 108.576 176.756 110.02 176.844L110.385 170.855C110.397 170.856 110.37 170.858 110.327 170.817L106.247 175.217Z" fill="black" mask="url(#path-12-inside-5_1_2)"/>
<mask id="path-14-inside-6_1_2" fill="white">
<path fill-rule="evenodd" clip-rule="evenodd" d="M55.2019 239.642C55.2019 240.747 56.0974 241.642 57.2019 241.642H69.2019C70.3065 241.642 71.2019 240.747 71.2019 239.642V223.642H87.2019C88.3065 223.642 89.2019 222.747 89.2019 221.642V209.642C89.2019 208.538 88.3065 207.642 87.2019 207.642H71.2019V191.642C71.2019 190.538 70.3065 189.642 69.2019 189.642H57.2019C56.0974 189.642 55.2019 190.538 55.2019 191.642V207.642H39.2019C38.0974 207.642 37.2019 208.538 37.2019 209.642V221.642C37.2019 222.747 38.0974 223.642 39.2019 223.642H55.2019V239.642Z"/>
</mask>
<path fill-rule="evenodd" clip-rule="evenodd" d="M55.2019 239.642C55.2019 240.747 56.0974 241.642 57.2019 241.642H69.2019C70.3065 241.642 71.2019 240.747 71.2019 239.642V223.642H87.2019C88.3065 223.642 89.2019 222.747 89.2019 221.642V209.642C89.2019 208.538 88.3065 207.642 87.2019 207.642H71.2019V191.642C71.2019 190.538 70.3065 189.642 69.2019 189.642H57.2019C56.0974 189.642 55.2019 190.538 55.2019 191.642V207.642H39.2019C38.0974 207.642 37.2019 208.538 37.2019 209.642V221.642C37.2019 222.747 38.0974 223.642 39.2019 223.642H55.2019V239.642Z" fill="#FDA603"/>
<path d="M71.2019 223.642V220.642H68.2019V223.642H71.2019ZM71.2019 207.642H68.2019V210.642H71.2019V207.642ZM55.2019 207.642V210.642H58.2019V207.642H55.2019ZM55.2019 223.642H58.2019V220.642H55.2019V223.642ZM57.2019 238.642C57.7542 238.642 58.2019 239.09 58.2019 239.642H52.2019C52.2019 242.404 54.4405 244.642 57.2019 244.642V238.642ZM69.2019 238.642H57.2019V244.642H69.2019V238.642ZM68.2019 239.642C68.2019 239.09 68.6496 238.642 69.2019 238.642V244.642C71.9634 244.642 74.2019 242.404 74.2019 239.642H68.2019ZM68.2019 223.642V239.642H74.2019V223.642H68.2019ZM87.2019 220.642H71.2019V226.642H87.2019V220.642ZM86.2019 221.642C86.2019 221.09 86.6497 220.642 87.2019 220.642V226.642C89.9634 226.642 92.2019 224.404 92.2019 221.642H86.2019ZM86.2019 209.642V221.642H92.2019V209.642H86.2019ZM87.2019 210.642C86.6497 210.642 86.2019 210.195 86.2019 209.642H92.2019C92.2019 206.881 89.9634 204.642 87.2019 204.642V210.642ZM71.2019 210.642H87.2019V204.642H71.2019V210.642ZM68.2019 191.642V207.642H74.2019V191.642H68.2019ZM69.2019 192.642C68.6497 192.642 68.2019 192.195 68.2019 191.642H74.2019C74.2019 188.881 71.9634 186.642 69.2019 186.642V192.642ZM57.2019 192.642H69.2019V186.642H57.2019V192.642ZM58.2019 191.642C58.2019 192.195 57.7542 192.642 57.2019 192.642V186.642C54.4405 186.642 52.2019 188.881 52.2019 191.642H58.2019ZM58.2019 207.642V191.642H52.2019V207.642H58.2019ZM39.2019 210.642H55.2019V204.642H39.2019V210.642ZM40.2019 209.642C40.2019 210.195 39.7542 210.642 39.2019 210.642V204.642C36.4405 204.642 34.2019 206.881 34.2019 209.642H40.2019ZM40.2019 221.642V209.642H34.2019V221.642H40.2019ZM39.2019 220.642C39.7542 220.642 40.2019 221.09 40.2019 221.642H34.2019C34.2019 224.404 36.4405 226.642 39.2019 226.642V220.642ZM55.2019 220.642H39.2019V226.642H55.2019V220.642ZM58.2019 239.642V223.642H52.2019V239.642H58.2019Z" fill="black" mask="url(#path-14-inside-6_1_2)"/>
<mask id="path-16-inside-7_1_2" fill="white">
<path fill-rule="evenodd" clip-rule="evenodd" d="M179.202 206.976C184.541 206.976 188.869 202.648 188.869 197.309C188.869 191.97 184.541 187.642 179.202 187.642C173.863 187.642 169.535 191.97 169.535 197.309C169.535 202.648 173.863 206.976 179.202 206.976ZM161.869 224.309C167.207 224.309 171.535 219.981 171.535 214.642C171.535 209.304 167.207 204.976 161.869 204.976C156.53 204.976 152.202 209.304 152.202 214.642C152.202 219.981 156.53 224.309 161.869 224.309ZM196.535 224.309C201.874 224.309 206.202 219.981 206.202 214.642C206.202 209.304 201.874 204.976 196.535 204.976C191.197 204.976 186.869 209.304 186.869 214.642C186.869 219.981 191.197 224.309 196.535 224.309ZM188.869 229.828C188.869 235.166 184.541 239.494 179.202 239.494C173.863 239.494 169.535 235.166 169.535 229.828C169.535 224.489 173.863 220.161 179.202 220.161C184.541 220.161 188.869 224.489 188.869 229.828Z"/>
</mask>
<path fill-rule="evenodd" clip-rule="evenodd" d="M179.202 206.976C184.541 206.976 188.869 202.648 188.869 197.309C188.869 191.97 184.541 187.642 179.202 187.642C173.863 187.642 169.535 191.97 169.535 197.309C169.535 202.648 173.863 206.976 179.202 206.976ZM161.869 224.309C167.207 224.309 171.535 219.981 171.535 214.642C171.535 209.304 167.207 204.976 161.869 204.976C156.53 204.976 152.202 209.304 152.202 214.642C152.202 219.981 156.53 224.309 161.869 224.309ZM196.535 224.309C201.874 224.309 206.202 219.981 206.202 214.642C206.202 209.304 201.874 204.976 196.535 204.976C191.197 204.976 186.869 209.304 186.869 214.642C186.869 219.981 191.197 224.309 196.535 224.309ZM188.869 229.828C188.869 235.166 184.541 239.494 179.202 239.494C173.863 239.494 169.535 235.166 169.535 229.828C169.535 224.489 173.863 220.161 179.202 220.161C184.541 220.161 188.869 224.489 188.869 229.828Z" fill="#FEA103"/>
<path d="M185.869 197.309C185.869 200.991 182.884 203.976 179.202 203.976V209.976C186.198 209.976 191.869 204.305 191.869 197.309H185.869ZM179.202 190.642C182.884 190.642 185.869 193.627 185.869 197.309H191.869C191.869 190.314 186.198 184.642 179.202 184.642V190.642ZM172.535 197.309C172.535 193.627 175.52 190.642 179.202 190.642V184.642C172.206 184.642 166.535 190.314 166.535 197.309H172.535ZM179.202 203.976C175.52 203.976 172.535 200.991 172.535 197.309H166.535C166.535 204.305 172.206 209.976 179.202 209.976V203.976ZM168.535 214.642C168.535 218.324 165.55 221.309 161.869 221.309V227.309C168.864 227.309 174.535 221.638 174.535 214.642H168.535ZM161.869 207.976C165.55 207.976 168.535 210.961 168.535 214.642H174.535C174.535 207.647 168.864 201.976 161.869 201.976V207.976ZM155.202 214.642C155.202 210.961 158.187 207.976 161.869 207.976V201.976C154.873 201.976 149.202 207.647 149.202 214.642H155.202ZM161.869 221.309C158.187 221.309 155.202 218.324 155.202 214.642H149.202C149.202 221.638 154.873 227.309 161.869 227.309V221.309ZM203.202 214.642C203.202 218.324 200.217 221.309 196.535 221.309V227.309C203.531 227.309 209.202 221.638 209.202 214.642H203.202ZM196.535 207.976C200.217 207.976 203.202 210.961 203.202 214.642H209.202C209.202 207.647 203.531 201.976 196.535 201.976V207.976ZM189.869 214.642C189.869 210.961 192.853 207.976 196.535 207.976V201.976C189.54 201.976 183.869 207.647 183.869 214.642H189.869ZM196.535 221.309C192.853 221.309 189.869 218.324 189.869 214.642H183.869C183.869 221.638 189.54 227.309 196.535 227.309V221.309ZM179.202 242.494C186.198 242.494 191.869 236.823 191.869 229.828H185.869C185.869 233.51 182.884 236.494 179.202 236.494V242.494ZM166.535 229.828C166.535 236.823 172.206 242.494 179.202 242.494V236.494C175.52 236.494 172.535 233.51 172.535 229.828H166.535ZM179.202 217.161C172.206 217.161 166.535 222.832 166.535 229.828H172.535C172.535 226.146 175.52 223.161 179.202 223.161V217.161ZM191.869 229.828C191.869 222.832 186.198 217.161 179.202 217.161V223.161C182.884 223.161 185.869 226.146 185.869 229.828H191.869Z" fill="black" mask="url(#path-16-inside-7_1_2)"/>
</g>
<defs>
<clipPath id="clip0_1_2">
<rect width="248" height="293" fill="white"/>
</clipPath>
</defs>
</svg>
