<svg width="332" height="76" viewBox="0 0 332 76" fill="none" xmlns="http://www.w3.org/2000/svg">
<path fill-rule="evenodd" clip-rule="evenodd" d="M25 11C13.2612 11 3.412 19.0907 0.724646 30H0V36V44V51C0 64.8071 11.1929 76 25 76H307C320.807 76 332 64.8071 332 51V44V36V30H331.275C328.588 19.0907 318.739 11 307 11H25Z" fill="#342200"/>
<rect x="2.5" y="2.5" width="327" height="64" rx="22.5" fill="#FEA500" stroke="#342200" stroke-width="5"/>
<mask id="path-3-outside-1_10_97" maskUnits="userSpaceOnUse" x="39" y="14" width="255" height="38" fill="black">
<rect fill="white" x="39" y="14" width="255" height="38"/>
<path d="M40.8063 47.792V18.992C40.8063 18.192 40.9983 17.568 41.3823 17.12C41.7983 16.64 42.3263 16.4 42.9663 16.4H50.9823C56.0703 16.4 59.9263 17.68 62.5503 20.24C65.2063 22.8 66.5343 26.832 66.5343 32.336C66.5343 44.112 61.5103 50 51.4623 50H43.2543C41.6223 50 40.8063 49.264 40.8063 47.792ZM50.0223 25.52V39.872C50.0223 40.544 50.0703 40.976 50.1663 41.168C50.2623 41.328 50.5503 41.408 51.0303 41.408C52.7903 41.408 54.1183 40.752 55.0143 39.44C55.9423 38.128 56.4063 35.952 56.4063 32.912C56.4063 29.84 55.9263 27.84 54.9663 26.912C54.0383 25.984 52.5503 25.52 50.5023 25.52H50.0223ZM84.6404 50.48C80.1604 50.48 76.4964 49.008 73.6484 46.064C70.8324 43.12 69.4244 38.832 69.4244 33.2C69.4244 27.536 70.8484 23.248 73.6964 20.336C76.5764 17.424 80.2724 15.968 84.7844 15.968C89.3284 15.968 92.9924 17.408 95.7764 20.288C98.5604 23.136 99.9524 27.472 99.9524 33.296C99.9524 39.088 98.5284 43.408 95.6804 46.256C92.8324 49.072 89.1524 50.48 84.6404 50.48ZM84.6884 25.184C83.1524 25.184 81.8564 25.888 80.8004 27.296C79.7764 28.704 79.2644 30.688 79.2644 33.248C79.2644 35.776 79.7604 37.728 80.7524 39.104C81.7444 40.448 83.0404 41.12 84.6404 41.12C86.2724 41.12 87.5844 40.432 88.5764 39.056C89.6004 37.68 90.1124 35.712 90.1124 33.152C90.1124 30.592 89.5844 28.624 88.5284 27.248C87.5044 25.872 86.2244 25.184 84.6884 25.184ZM102.414 16.88C102.318 16.528 103.934 16.352 107.262 16.352C110.942 16.352 112.83 16.656 112.926 17.264L115.278 37.472L120.366 17.024C120.526 16.544 121.774 16.304 124.11 16.304C126.446 16.304 127.694 16.528 127.854 16.976L132.846 37.568L135.63 17.168C135.694 16.816 136.43 16.576 137.838 16.448C139.246 16.32 140.382 16.256 141.246 16.256C144.606 16.256 146.238 16.48 146.142 16.928L140.334 48.752C140.206 49.232 139.294 49.584 137.598 49.808C135.902 50.032 134.526 50.144 133.47 50.144C129.502 50.144 127.422 49.696 127.23 48.8L123.966 35.6L120.414 48.752C120.286 49.328 119.166 49.744 117.054 50C115.966 50.096 114.878 50.144 113.79 50.144L110.718 50C108.606 49.776 107.486 49.376 107.358 48.8L102.414 16.88ZM175.86 48.944C175.86 49.616 174.356 49.952 171.348 49.952C168.34 49.952 166.708 49.712 166.452 49.232L158.436 34.256V49.184C158.436 49.76 156.948 50.048 153.972 50.048C151.028 50.048 149.556 49.76 149.556 49.184V17.072C149.556 16.592 150.82 16.352 153.348 16.352C154.34 16.352 155.492 16.448 156.804 16.64C158.148 16.8 158.964 17.12 159.252 17.6L166.932 32.384V17.312C166.932 16.704 168.42 16.4 171.396 16.4C174.372 16.4 175.86 16.704 175.86 17.312V48.944ZM180.201 47.168V17.312C180.201 16.64 181.817 16.304 185.049 16.304C188.313 16.304 189.945 16.64 189.945 17.312V40.832H197.337C197.913 40.832 198.313 41.584 198.537 43.088C198.633 43.824 198.681 44.576 198.681 45.344C198.681 46.112 198.633 46.896 198.537 47.696C198.281 49.232 197.865 50 197.289 50H182.505C181.801 50 181.241 49.712 180.825 49.136C180.409 48.56 180.201 47.904 180.201 47.168ZM215.797 50.48C211.317 50.48 207.653 49.008 204.805 46.064C201.989 43.12 200.581 38.832 200.581 33.2C200.581 27.536 202.005 23.248 204.853 20.336C207.733 17.424 211.429 15.968 215.941 15.968C220.485 15.968 224.149 17.408 226.933 20.288C229.717 23.136 231.109 27.472 231.109 33.296C231.109 39.088 229.685 43.408 226.837 46.256C223.989 49.072 220.309 50.48 215.797 50.48ZM215.845 25.184C214.309 25.184 213.013 25.888 211.957 27.296C210.933 28.704 210.421 30.688 210.421 33.248C210.421 35.776 210.917 37.728 211.909 39.104C212.901 40.448 214.197 41.12 215.797 41.12C217.429 41.12 218.741 40.432 219.733 39.056C220.757 37.68 221.269 35.712 221.269 33.152C221.269 30.592 220.741 28.624 219.685 27.248C218.661 25.872 217.381 25.184 215.845 25.184ZM257.523 50.096C254.739 50.096 253.235 49.648 253.011 48.752L251.427 42.56H243.795L242.403 48.512C242.211 49.504 240.675 50 237.795 50C236.259 50 235.123 49.92 234.387 49.76C233.651 49.568 233.283 49.424 233.283 49.328L241.779 16.832C241.779 16.576 243.971 16.448 248.355 16.448C252.739 16.448 254.931 16.576 254.931 16.832L263.235 49.376C263.235 49.6 262.499 49.776 261.027 49.904C259.555 50.032 258.387 50.096 257.523 50.096ZM244.995 36.464H250.035L247.875 26.528H247.587L244.995 36.464ZM266.416 47.792V18.992C266.416 18.192 266.608 17.568 266.992 17.12C267.408 16.64 267.936 16.4 268.576 16.4H276.592C281.68 16.4 285.536 17.68 288.16 20.24C290.816 22.8 292.144 26.832 292.144 32.336C292.144 44.112 287.12 50 277.072 50H268.864C267.232 50 266.416 49.264 266.416 47.792ZM275.632 25.52V39.872C275.632 40.544 275.68 40.976 275.776 41.168C275.872 41.328 276.16 41.408 276.64 41.408C278.4 41.408 279.728 40.752 280.624 39.44C281.552 38.128 282.016 35.952 282.016 32.912C282.016 29.84 281.536 27.84 280.576 26.912C279.648 25.984 278.16 25.52 276.112 25.52H275.632Z"/>
</mask>
<path d="M40.8063 47.792V18.992C40.8063 18.192 40.9983 17.568 41.3823 17.12C41.7983 16.64 42.3263 16.4 42.9663 16.4H50.9823C56.0703 16.4 59.9263 17.68 62.5503 20.24C65.2063 22.8 66.5343 26.832 66.5343 32.336C66.5343 44.112 61.5103 50 51.4623 50H43.2543C41.6223 50 40.8063 49.264 40.8063 47.792ZM50.0223 25.52V39.872C50.0223 40.544 50.0703 40.976 50.1663 41.168C50.2623 41.328 50.5503 41.408 51.0303 41.408C52.7903 41.408 54.1183 40.752 55.0143 39.44C55.9423 38.128 56.4063 35.952 56.4063 32.912C56.4063 29.84 55.9263 27.84 54.9663 26.912C54.0383 25.984 52.5503 25.52 50.5023 25.52H50.0223ZM84.6404 50.48C80.1604 50.48 76.4964 49.008 73.6484 46.064C70.8324 43.12 69.4244 38.832 69.4244 33.2C69.4244 27.536 70.8484 23.248 73.6964 20.336C76.5764 17.424 80.2724 15.968 84.7844 15.968C89.3284 15.968 92.9924 17.408 95.7764 20.288C98.5604 23.136 99.9524 27.472 99.9524 33.296C99.9524 39.088 98.5284 43.408 95.6804 46.256C92.8324 49.072 89.1524 50.48 84.6404 50.48ZM84.6884 25.184C83.1524 25.184 81.8564 25.888 80.8004 27.296C79.7764 28.704 79.2644 30.688 79.2644 33.248C79.2644 35.776 79.7604 37.728 80.7524 39.104C81.7444 40.448 83.0404 41.12 84.6404 41.12C86.2724 41.12 87.5844 40.432 88.5764 39.056C89.6004 37.68 90.1124 35.712 90.1124 33.152C90.1124 30.592 89.5844 28.624 88.5284 27.248C87.5044 25.872 86.2244 25.184 84.6884 25.184ZM102.414 16.88C102.318 16.528 103.934 16.352 107.262 16.352C110.942 16.352 112.83 16.656 112.926 17.264L115.278 37.472L120.366 17.024C120.526 16.544 121.774 16.304 124.11 16.304C126.446 16.304 127.694 16.528 127.854 16.976L132.846 37.568L135.63 17.168C135.694 16.816 136.43 16.576 137.838 16.448C139.246 16.32 140.382 16.256 141.246 16.256C144.606 16.256 146.238 16.48 146.142 16.928L140.334 48.752C140.206 49.232 139.294 49.584 137.598 49.808C135.902 50.032 134.526 50.144 133.47 50.144C129.502 50.144 127.422 49.696 127.23 48.8L123.966 35.6L120.414 48.752C120.286 49.328 119.166 49.744 117.054 50C115.966 50.096 114.878 50.144 113.79 50.144L110.718 50C108.606 49.776 107.486 49.376 107.358 48.8L102.414 16.88ZM175.86 48.944C175.86 49.616 174.356 49.952 171.348 49.952C168.34 49.952 166.708 49.712 166.452 49.232L158.436 34.256V49.184C158.436 49.76 156.948 50.048 153.972 50.048C151.028 50.048 149.556 49.76 149.556 49.184V17.072C149.556 16.592 150.82 16.352 153.348 16.352C154.34 16.352 155.492 16.448 156.804 16.64C158.148 16.8 158.964 17.12 159.252 17.6L166.932 32.384V17.312C166.932 16.704 168.42 16.4 171.396 16.4C174.372 16.4 175.86 16.704 175.86 17.312V48.944ZM180.201 47.168V17.312C180.201 16.64 181.817 16.304 185.049 16.304C188.313 16.304 189.945 16.64 189.945 17.312V40.832H197.337C197.913 40.832 198.313 41.584 198.537 43.088C198.633 43.824 198.681 44.576 198.681 45.344C198.681 46.112 198.633 46.896 198.537 47.696C198.281 49.232 197.865 50 197.289 50H182.505C181.801 50 181.241 49.712 180.825 49.136C180.409 48.56 180.201 47.904 180.201 47.168ZM215.797 50.48C211.317 50.48 207.653 49.008 204.805 46.064C201.989 43.12 200.581 38.832 200.581 33.2C200.581 27.536 202.005 23.248 204.853 20.336C207.733 17.424 211.429 15.968 215.941 15.968C220.485 15.968 224.149 17.408 226.933 20.288C229.717 23.136 231.109 27.472 231.109 33.296C231.109 39.088 229.685 43.408 226.837 46.256C223.989 49.072 220.309 50.48 215.797 50.48ZM215.845 25.184C214.309 25.184 213.013 25.888 211.957 27.296C210.933 28.704 210.421 30.688 210.421 33.248C210.421 35.776 210.917 37.728 211.909 39.104C212.901 40.448 214.197 41.12 215.797 41.12C217.429 41.12 218.741 40.432 219.733 39.056C220.757 37.68 221.269 35.712 221.269 33.152C221.269 30.592 220.741 28.624 219.685 27.248C218.661 25.872 217.381 25.184 215.845 25.184ZM257.523 50.096C254.739 50.096 253.235 49.648 253.011 48.752L251.427 42.56H243.795L242.403 48.512C242.211 49.504 240.675 50 237.795 50C236.259 50 235.123 49.92 234.387 49.76C233.651 49.568 233.283 49.424 233.283 49.328L241.779 16.832C241.779 16.576 243.971 16.448 248.355 16.448C252.739 16.448 254.931 16.576 254.931 16.832L263.235 49.376C263.235 49.6 262.499 49.776 261.027 49.904C259.555 50.032 258.387 50.096 257.523 50.096ZM244.995 36.464H250.035L247.875 26.528H247.587L244.995 36.464ZM266.416 47.792V18.992C266.416 18.192 266.608 17.568 266.992 17.12C267.408 16.64 267.936 16.4 268.576 16.4H276.592C281.68 16.4 285.536 17.68 288.16 20.24C290.816 22.8 292.144 26.832 292.144 32.336C292.144 44.112 287.12 50 277.072 50H268.864C267.232 50 266.416 49.264 266.416 47.792ZM275.632 25.52V39.872C275.632 40.544 275.68 40.976 275.776 41.168C275.872 41.328 276.16 41.408 276.64 41.408C278.4 41.408 279.728 40.752 280.624 39.44C281.552 38.128 282.016 35.952 282.016 32.912C282.016 29.84 281.536 27.84 280.576 26.912C279.648 25.984 278.16 25.52 276.112 25.52H275.632Z" fill="white"/>
<path d="M41.3823 17.12L40.6266 16.4651L40.623 16.4692L41.3823 17.12ZM62.5503 20.24L61.8519 20.9558L61.8563 20.96L62.5503 20.24ZM50.0223 25.52V24.52H49.0223V25.52H50.0223ZM50.1663 41.168L49.2718 41.6152L49.289 41.6496L49.3088 41.6825L50.1663 41.168ZM55.0143 39.44L54.1978 38.8625L54.1931 38.8692L54.1884 38.876L55.0143 39.44ZM54.9663 26.912L54.2591 27.6191L54.2651 27.6251L54.2712 27.631L54.9663 26.912ZM41.8063 47.792V18.992H39.8063V47.792H41.8063ZM41.8063 18.992C41.8063 18.3454 41.9606 17.9819 42.1415 17.7708L40.623 16.4692C40.0359 17.1541 39.8063 18.0386 39.8063 18.992H41.8063ZM42.1379 17.7749C42.3623 17.516 42.6137 17.4 42.9663 17.4V15.4C42.0388 15.4 41.2342 15.764 40.6266 16.4651L42.1379 17.7749ZM42.9663 17.4H50.9823V15.4H42.9663V17.4ZM50.9823 17.4C55.912 17.4 59.4772 18.6389 61.8519 20.9558L63.2486 19.5242C60.3753 16.7211 56.2285 15.4 50.9823 15.4V17.4ZM61.8563 20.96C64.2381 23.2557 65.5343 26.9705 65.5343 32.336H67.5343C67.5343 26.6935 66.1744 22.3443 63.2442 19.52L61.8563 20.96ZM65.5343 32.336C65.5343 38.1052 64.3002 42.2456 62.0055 44.9349C59.7368 47.5938 56.287 49 51.4623 49V51C56.6855 51 60.7717 49.4622 63.527 46.2331C66.2563 43.0344 67.5343 38.3428 67.5343 32.336H65.5343ZM51.4623 49H43.2543V51H51.4623V49ZM43.2543 49C42.5684 49 42.2407 48.8431 42.088 48.7054C41.955 48.5854 41.8063 48.3457 41.8063 47.792H39.8063C39.8063 48.7103 40.0655 49.5746 40.7485 50.1906C41.4118 50.7889 42.3081 51 43.2543 51V49ZM49.0223 25.52V39.872H51.0223V25.52H49.0223ZM49.0223 39.872C49.0223 40.2273 49.0347 40.5437 49.0644 40.8104C49.0908 41.0487 49.1407 41.353 49.2718 41.6152L51.0607 40.7208C51.0847 40.7689 51.0857 40.7889 51.0776 40.7541C51.0708 40.7245 51.0613 40.6717 51.0521 40.5896C51.0338 40.4243 51.0223 40.1887 51.0223 39.872H49.0223ZM49.3088 41.6825C49.5487 42.0823 49.9376 42.2423 50.1866 42.3115C50.4541 42.3858 50.7474 42.408 51.0303 42.408V40.408C50.9369 40.408 50.8644 40.4041 50.8099 40.3984C50.7542 40.3926 50.7273 40.386 50.7219 40.3845C50.7147 40.3825 50.7495 40.3908 50.8042 40.425C50.862 40.4611 50.9509 40.5321 51.0237 40.6535L49.3088 41.6825ZM51.0303 42.408C53.0789 42.408 54.7354 41.6216 55.8401 40.004L54.1884 38.876C53.5011 39.8824 52.5016 40.408 51.0303 40.408V42.408ZM55.8307 40.0175C56.9448 38.4423 57.4063 36.0013 57.4063 32.912H55.4063C55.4063 35.9027 54.9397 37.8137 54.1978 38.8625L55.8307 40.0175ZM57.4063 32.912C57.4063 31.3319 57.2836 29.9786 57.0186 28.8746C56.7564 27.782 56.3332 26.8426 55.6613 26.193L54.2712 27.631C54.5593 27.9094 54.8561 28.434 55.0739 29.3414C55.2889 30.2374 55.4063 31.4201 55.4063 32.912H57.4063ZM55.6734 26.2049C54.4757 25.0073 52.6709 24.52 50.5023 24.52V26.52C52.4296 26.52 53.6008 26.9607 54.2591 27.6191L55.6734 26.2049ZM50.5023 24.52H50.0223V26.52H50.5023V24.52ZM73.6484 46.064L72.9257 46.7552L72.9296 46.7593L73.6484 46.064ZM73.6964 20.336L72.9854 19.6328L72.9815 19.6368L73.6964 20.336ZM95.7764 20.288L95.0574 20.983L95.0613 20.987L95.7764 20.288ZM95.6804 46.256L96.3835 46.9671L96.3875 46.9631L95.6804 46.256ZM80.8004 27.296L80.0004 26.696L79.996 26.7019L79.9916 26.7078L80.8004 27.296ZM80.7524 39.104L79.9411 39.6888L79.9478 39.6979L80.7524 39.104ZM88.5764 39.056L87.7741 38.459L87.7696 38.4651L87.7652 38.4712L88.5764 39.056ZM88.5284 27.248L87.7261 27.845L87.7306 27.8509L87.7351 27.8568L88.5284 27.248ZM84.6404 49.48C80.4032 49.48 77.008 48.0987 74.3671 45.3687L72.9296 46.7593C75.9847 49.9173 79.9175 51.48 84.6404 51.48V49.48ZM74.371 45.3728C71.7917 42.6763 70.4244 38.6742 70.4244 33.2H68.4244C68.4244 38.9898 69.873 43.5637 72.9257 46.7552L74.371 45.3728ZM70.4244 33.2C70.4244 27.6939 71.8075 23.6975 74.4113 21.0352L72.9815 19.6368C69.8893 22.7985 68.4244 27.3781 68.4244 33.2H70.4244ZM74.4074 21.0392C77.0795 18.3374 80.5096 16.968 84.7844 16.968V14.968C80.0351 14.968 76.0732 16.5106 72.9854 19.6328L74.4074 21.0392ZM84.7844 16.968C89.0972 16.968 92.4878 18.3249 95.0574 20.983L96.4954 19.593C93.4969 16.4911 89.5596 14.968 84.7844 14.968V16.968ZM95.0613 20.987C97.593 23.577 98.9524 27.6131 98.9524 33.296H100.952C100.952 27.3309 99.5277 22.695 96.4915 19.589L95.0613 20.987ZM98.9524 33.296C98.9524 38.9395 97.5648 42.9574 94.9733 45.5489L96.3875 46.9631C99.492 43.8586 100.952 39.2365 100.952 33.296H98.9524ZM94.9773 45.5449C92.3408 48.1518 88.9254 49.48 84.6404 49.48V51.48C89.3793 51.48 93.324 49.9922 96.3835 46.9671L94.9773 45.5449ZM84.6884 24.184C82.7887 24.184 81.2138 25.0781 80.0004 26.696L81.6004 27.896C82.4989 26.6979 83.516 26.184 84.6884 26.184V24.184ZM79.9916 26.7078C78.7972 28.3502 78.2644 30.5716 78.2644 33.248H80.2644C80.2644 30.8044 80.7555 29.0578 81.6091 27.8842L79.9916 26.7078ZM78.2644 33.248C78.2644 35.8883 78.7796 38.0775 79.9412 39.6888L81.5636 38.5192C80.7412 37.3785 80.2644 35.6637 80.2644 33.248H78.2644ZM79.9478 39.6979C81.1186 41.2841 82.7069 42.12 84.6404 42.12V40.12C83.3739 40.12 82.3702 39.6119 81.5569 38.5101L79.9478 39.6979ZM84.6404 42.12C86.6084 42.12 88.2163 41.2654 89.3876 39.6408L87.7652 38.4712C86.9524 39.5986 85.9363 40.12 84.6404 40.12V42.12ZM89.3786 39.653C90.5804 38.0381 91.1124 35.8263 91.1124 33.152H89.1124C89.1124 35.5977 88.6204 37.3219 87.7741 38.459L89.3786 39.653ZM91.1124 33.152C91.1124 30.4723 90.5622 28.2556 89.3217 26.6392L87.7351 27.8568C88.6066 28.9924 89.1124 30.7117 89.1124 33.152H91.1124ZM89.3306 26.651C88.1432 25.0555 86.5806 24.184 84.6884 24.184V26.184C85.8681 26.184 86.8655 26.6885 87.7261 27.845L89.3306 26.651ZM102.414 16.88L103.402 16.7269L103.394 16.6712L103.379 16.6169L102.414 16.88ZM112.926 17.264L113.92 17.1484L113.917 17.1282L113.914 17.108L112.926 17.264ZM115.278 37.472L114.285 37.5876L116.249 37.7135L115.278 37.472ZM120.366 17.024L119.418 16.7078L119.405 16.7447L119.396 16.7825L120.366 17.024ZM127.854 16.976L128.826 16.7404L128.814 16.6892L128.796 16.6397L127.854 16.976ZM132.846 37.568L131.874 37.8036L133.837 37.7032L132.846 37.568ZM135.63 17.168L134.646 16.9891L134.642 17.0109L134.639 17.0328L135.63 17.168ZM137.838 16.448L137.748 15.4521L137.748 15.4521L137.838 16.448ZM146.142 16.928L145.164 16.7185L145.161 16.7334L145.159 16.7485L146.142 16.928ZM140.334 48.752L141.3 49.0097L141.311 48.971L141.318 48.9315L140.334 48.752ZM137.598 49.808L137.467 48.8166L137.467 48.8166L137.598 49.808ZM127.23 48.8L128.208 48.5905L128.205 48.5752L128.201 48.56L127.23 48.8ZM123.966 35.6L124.937 35.36L124.009 31.6066L123.001 35.3393L123.966 35.6ZM120.414 48.752L119.449 48.4913L119.443 48.513L119.438 48.5351L120.414 48.752ZM117.054 50L117.142 50.9961L117.158 50.9947L117.175 50.9927L117.054 50ZM113.79 50.144L113.743 51.1429L113.767 51.144H113.79V50.144ZM110.718 50L110.613 50.9944L110.642 50.9975L110.671 50.9989L110.718 50ZM107.358 48.8L106.37 48.9531L106.375 48.9852L106.382 49.0169L107.358 48.8ZM103.379 16.6169C103.49 17.0246 103.292 17.3473 103.139 17.4894C103.028 17.5916 102.941 17.6111 102.991 17.5936C103.07 17.5664 103.274 17.5205 103.663 17.4781C104.414 17.3963 105.605 17.352 107.262 17.352V15.352C105.591 15.352 104.31 15.3957 103.446 15.4899C103.027 15.5355 102.637 15.5996 102.335 15.7044C102.195 15.7529 101.972 15.8439 101.778 16.0231C101.542 16.2422 101.314 16.6474 101.449 17.1431L103.379 16.6169ZM107.262 17.352C109.088 17.352 110.416 17.4283 111.279 17.5673C111.718 17.6379 111.974 17.7155 112.101 17.7736C112.276 17.8542 111.997 17.7885 111.938 17.42L113.914 17.108C113.808 16.4355 113.257 16.1038 112.936 15.9564C112.566 15.7865 112.102 15.6741 111.597 15.5927C110.573 15.4277 109.116 15.352 107.262 15.352V17.352ZM111.933 17.3796L114.285 37.5876L116.272 37.3564L113.92 17.1484L111.933 17.3796ZM116.249 37.7135L121.337 17.2655L119.396 16.7825L114.308 37.2305L116.249 37.7135ZM121.315 17.3402C121.236 17.5777 121.076 17.6351 121.146 17.5993C121.202 17.5703 121.343 17.5176 121.611 17.466C122.141 17.364 122.962 17.304 124.11 17.304V15.304C122.922 15.304 121.951 15.364 121.233 15.502C120.878 15.5704 120.53 15.6677 120.235 15.8187C119.953 15.9629 119.577 16.2303 119.418 16.7078L121.315 17.3402ZM124.11 17.304C125.26 17.304 126.085 17.36 126.622 17.4563C126.893 17.505 127.038 17.5553 127.1 17.5845C127.182 17.624 127.004 17.5679 126.913 17.3123L128.796 16.6397C128.625 16.1601 128.23 15.908 127.961 15.7795C127.67 15.6407 127.327 15.551 126.975 15.4877C126.263 15.3599 125.297 15.304 124.11 15.304V17.304ZM126.882 17.2116L131.874 37.8036L133.818 37.3324L128.826 16.7404L126.882 17.2116ZM133.837 37.7032L136.621 17.3032L134.639 17.0328L131.855 37.4328L133.837 37.7032ZM136.614 17.3469C136.569 17.5928 136.423 17.7112 136.399 17.7288C136.379 17.7441 136.408 17.7178 136.54 17.6747C136.801 17.5897 137.249 17.5057 137.929 17.4439L137.748 15.4521C137.02 15.5183 136.395 15.6183 135.92 15.7733C135.684 15.8502 135.43 15.9579 135.209 16.1212C134.986 16.2868 134.723 16.5672 134.646 16.9891L136.614 17.3469ZM137.929 17.4439C139.323 17.3171 140.425 17.256 141.246 17.256V15.256C140.339 15.256 139.17 15.3229 137.748 15.4521L137.929 17.4439ZM141.246 17.256C142.917 17.256 144.109 17.3124 144.854 17.4147C145.241 17.4678 145.428 17.5235 145.489 17.5502C145.524 17.5651 145.437 17.5363 145.338 17.4213C145.206 17.2677 145.102 17.0093 145.164 16.7185L147.12 17.1375C147.206 16.7347 147.072 16.3713 146.857 16.1197C146.674 15.9067 146.449 15.7869 146.291 15.7178C145.968 15.5765 145.556 15.4922 145.126 15.4333C144.24 15.3116 142.935 15.256 141.246 15.256V17.256ZM145.159 16.7485L139.351 48.5725L141.318 48.9315L147.126 17.1075L145.159 16.7485ZM139.368 48.4943C139.439 48.2268 139.617 48.2797 139.194 48.4431C138.847 48.577 138.286 48.7085 137.467 48.8166L137.729 50.7994C138.607 50.6835 139.349 50.527 139.914 50.3089C140.403 50.1203 141.101 49.7572 141.3 49.0097L139.368 48.4943ZM137.467 48.8166C135.792 49.0379 134.464 49.144 133.47 49.144V51.144C134.588 51.144 136.013 51.0261 137.729 50.7994L137.467 48.8166ZM133.47 49.144C131.507 49.144 130.08 49.0318 129.145 48.8304C128.674 48.729 128.39 48.6174 128.237 48.5273C128.086 48.4378 128.176 48.4395 128.208 48.5905L126.252 49.0095C126.381 49.6085 126.802 50.0022 127.219 50.2487C127.635 50.4946 128.155 50.663 128.724 50.7856C129.869 51.0322 131.465 51.144 133.47 51.144V49.144ZM128.201 48.56L124.937 35.36L122.995 35.84L126.259 49.04L128.201 48.56ZM123.001 35.3393L119.449 48.4913L121.38 49.0127L124.932 35.8607L123.001 35.3393ZM119.438 48.5351C119.471 48.388 119.549 48.3398 119.51 48.3712C119.467 48.4055 119.355 48.4749 119.13 48.5586C118.679 48.726 117.962 48.8826 116.934 49.0073L117.175 50.9927C118.258 50.8614 119.157 50.682 119.826 50.4334C120.161 50.3091 120.486 50.1505 120.754 49.9368C121.027 49.7202 121.294 49.404 121.39 48.9689L119.438 48.5351ZM116.966 49.0039C115.907 49.0973 114.849 49.144 113.79 49.144V51.144C114.908 51.144 116.025 51.0947 117.142 50.9961L116.966 49.0039ZM113.837 49.1451L110.765 49.0011L110.671 50.9989L113.743 51.1429L113.837 49.1451ZM110.824 49.0056C109.795 48.8965 109.079 48.7506 108.631 48.5903C108.406 48.5101 108.297 48.443 108.256 48.4113C108.22 48.383 108.301 48.4337 108.334 48.5831L106.382 49.0169C106.479 49.4543 106.748 49.771 107.024 49.9867C107.296 50.199 107.622 50.3539 107.958 50.4737C108.629 50.7134 109.529 50.8795 110.613 50.9944L110.824 49.0056ZM108.346 48.6469L103.402 16.7269L101.426 17.0331L106.37 48.9531L108.346 48.6469ZM166.452 49.232L167.335 48.7614L167.334 48.7601L166.452 49.232ZM158.436 34.256L159.318 33.7841L157.436 34.256H158.436ZM156.804 16.64L156.659 17.6295L156.673 17.6314L156.686 17.633L156.804 16.64ZM159.252 17.6L160.14 17.139L160.126 17.1118L160.11 17.0855L159.252 17.6ZM166.932 32.384L166.045 32.845L167.932 32.384H166.932ZM174.86 48.944C174.86 48.6684 175.039 48.5429 175.022 48.5543C174.984 48.5793 174.842 48.6508 174.514 48.7241C173.873 48.8673 172.834 48.952 171.348 48.952V50.952C172.87 50.952 174.088 50.8687 174.95 50.6759C175.374 50.5812 175.796 50.4427 176.135 50.2157C176.494 49.9751 176.86 49.5556 176.86 48.944H174.86ZM171.348 48.952C169.86 48.952 168.757 48.892 168.014 48.7826C167.639 48.7275 167.397 48.6656 167.259 48.6126C167.077 48.5436 167.221 48.5491 167.335 48.7614L165.57 49.7026C165.811 50.1549 166.255 50.3704 166.546 50.4814C166.879 50.6084 167.282 50.6965 167.723 50.7614C168.611 50.892 169.828 50.952 171.348 50.952V48.952ZM167.334 48.7601L159.318 33.7841L157.555 34.7279L165.571 49.7039L167.334 48.7601ZM157.436 34.256V49.184H159.436V34.256H157.436ZM157.436 49.184C157.436 48.8146 157.698 48.6721 157.655 48.6972C157.613 48.7218 157.463 48.7859 157.13 48.8502C156.483 48.9755 155.445 49.048 153.972 49.048V51.048C155.476 51.048 156.669 50.9765 157.51 50.8138C157.922 50.7341 158.33 50.6182 158.659 50.4268C158.988 50.2359 159.436 49.8414 159.436 49.184H157.436ZM153.972 49.048C152.516 49.048 151.49 48.9755 150.852 48.8506C150.524 48.7865 150.378 48.7229 150.338 48.6996C150.3 48.6769 150.556 48.82 150.556 49.184H148.556C148.556 49.836 148.997 50.2311 149.326 50.4244C149.654 50.6171 150.06 50.7335 150.468 50.8134C151.302 50.9765 152.485 51.048 153.972 51.048V49.048ZM150.556 49.184V17.072H148.556V49.184H150.556ZM150.556 17.072C150.556 17.2497 150.492 17.4011 150.415 17.5045C150.38 17.551 150.347 17.5818 150.325 17.5995C150.303 17.6172 150.289 17.6252 150.288 17.6259C150.287 17.6267 150.294 17.6226 150.312 17.615C150.33 17.6075 150.356 17.5978 150.391 17.5866C150.463 17.564 150.561 17.5391 150.691 17.5144C151.228 17.4125 152.099 17.352 153.348 17.352V15.352C152.069 15.352 151.045 15.4115 150.318 15.5496C149.963 15.6169 149.599 15.7169 149.298 15.8881C149.003 16.0565 148.556 16.4289 148.556 17.072H150.556ZM153.348 17.352C154.279 17.352 155.381 17.4423 156.659 17.6295L156.949 15.6505C155.604 15.4537 154.402 15.352 153.348 15.352V17.352ZM156.686 17.633C157.314 17.7077 157.761 17.8141 158.059 17.931C158.371 18.0531 158.413 18.1444 158.395 18.1145L160.11 17.0855C159.804 16.5756 159.294 16.2669 158.789 16.069C158.271 15.8659 157.639 15.7323 156.922 15.647L156.686 17.633ZM158.365 18.061L166.045 32.845L167.82 31.923L160.14 17.139L158.365 18.061ZM167.932 32.384V17.312H165.932V32.384H167.932ZM167.932 17.312C167.932 17.6465 167.703 17.7844 167.734 17.7656C167.773 17.7415 167.919 17.6751 168.248 17.6078C168.89 17.4766 169.924 17.4 171.396 17.4V15.4C169.892 15.4 168.694 15.4754 167.848 15.6482C167.434 15.7329 167.021 15.8565 166.689 16.0604C166.347 16.2696 165.932 16.6735 165.932 17.312H167.932ZM171.396 17.4C172.868 17.4 173.902 17.4766 174.544 17.6078C174.874 17.6751 175.019 17.7415 175.059 17.7656C175.089 17.7844 174.86 17.6465 174.86 17.312H176.86C176.86 16.6735 176.445 16.2696 176.104 16.0604C175.771 15.8565 175.359 15.7329 174.944 15.6482C174.098 15.4754 172.9 15.4 171.396 15.4V17.4ZM174.86 17.312V48.944H176.86V17.312H174.86ZM189.945 40.832H188.945V41.832H189.945V40.832ZM198.537 43.088L199.529 42.9587L199.528 42.9497L199.526 42.9407L198.537 43.088ZM198.537 47.696L199.524 47.8604L199.527 47.8378L199.53 47.8151L198.537 47.696ZM180.825 49.136L181.636 48.5505L181.636 48.5505L180.825 49.136ZM181.201 47.168V17.312H179.201V47.168H181.201ZM181.201 17.312C181.201 17.6219 180.99 17.7464 181.033 17.7195C181.088 17.6855 181.256 17.61 181.617 17.5351C182.321 17.3886 183.45 17.304 185.049 17.304V15.304C183.417 15.304 182.121 15.3874 181.21 15.5769C180.762 15.67 180.325 15.8045 179.975 16.0225C179.614 16.2476 179.201 16.6661 179.201 17.312H181.201ZM185.049 17.304C186.665 17.304 187.806 17.3886 188.52 17.5355C188.885 17.6106 189.057 17.6866 189.114 17.7218C189.161 17.7509 188.945 17.6267 188.945 17.312H190.945C190.945 16.6613 190.526 16.2431 190.165 16.0202C189.814 15.8034 189.374 15.6694 188.923 15.5765C188.004 15.3874 186.698 15.304 185.049 15.304V17.304ZM188.945 17.312V40.832H190.945V17.312H188.945ZM189.945 41.832H197.337V39.832H189.945V41.832ZM197.337 41.832C197.094 41.832 197.068 41.6425 197.186 41.8656C197.306 42.0913 197.442 42.522 197.548 43.2353L199.526 42.9407C199.409 42.15 199.232 41.4527 198.952 40.9264C198.671 40.3975 198.157 39.832 197.337 39.832V41.832ZM197.546 43.2173C197.636 43.909 197.681 44.6178 197.681 45.344H199.681C199.681 44.5342 199.631 43.739 199.529 42.9587L197.546 43.2173ZM197.681 45.344C197.681 46.0703 197.636 46.8145 197.544 47.5769L199.53 47.8151C199.631 46.9775 199.681 46.1537 199.681 45.344H197.681ZM197.551 47.5316C197.429 48.2619 197.283 48.709 197.154 48.9477C197.022 49.1915 197.041 49 197.289 49V51C198.113 51 198.629 50.4245 198.913 49.9003C199.199 49.371 199.389 48.6661 199.524 47.8604L197.551 47.5316ZM197.289 49H182.505V51H197.289V49ZM182.505 49C182.126 49 181.866 48.8691 181.636 48.5505L180.015 49.7215C180.617 50.5549 181.477 51 182.505 51V49ZM181.636 48.5505C181.348 48.1513 181.201 47.7018 181.201 47.168H179.201C179.201 48.1062 179.471 48.9687 180.015 49.7215L181.636 48.5505ZM204.805 46.064L204.082 46.7552L204.086 46.7593L204.805 46.064ZM204.853 20.336L204.142 19.6328L204.138 19.6368L204.853 20.336ZM226.933 20.288L226.214 20.983L226.218 20.987L226.933 20.288ZM226.837 46.256L227.54 46.9671L227.544 46.9631L226.837 46.256ZM211.957 27.296L211.157 26.696L211.152 26.7019L211.148 26.7078L211.957 27.296ZM211.909 39.104L211.097 39.6888L211.104 39.6979L211.909 39.104ZM219.733 39.056L218.93 38.459L218.926 38.4651L218.921 38.4712L219.733 39.056ZM219.685 27.248L218.882 27.845L218.887 27.8509L218.891 27.8568L219.685 27.248ZM215.797 49.48C211.559 49.48 208.164 48.0987 205.523 45.3687L204.086 46.7593C207.141 49.9173 211.074 51.48 215.797 51.48V49.48ZM205.527 45.3728C202.948 42.6763 201.581 38.6742 201.581 33.2H199.581C199.581 38.9898 201.029 43.5637 204.082 46.7552L205.527 45.3728ZM201.581 33.2C201.581 27.6939 202.964 23.6975 205.568 21.0352L204.138 19.6368C201.046 22.7985 199.581 27.3781 199.581 33.2H201.581ZM205.564 21.0392C208.236 18.3374 211.666 16.968 215.941 16.968V14.968C211.191 14.968 207.229 16.5106 204.142 19.6328L205.564 21.0392ZM215.941 16.968C220.253 16.968 223.644 18.3249 226.214 20.983L227.652 19.593C224.653 16.4911 220.716 14.968 215.941 14.968V16.968ZM226.218 20.987C228.749 23.577 230.109 27.6131 230.109 33.296H232.109C232.109 27.3309 230.684 22.695 227.648 19.589L226.218 20.987ZM230.109 33.296C230.109 38.9395 228.721 42.9574 226.13 45.5489L227.544 46.9631C230.648 43.8586 232.109 39.2365 232.109 33.296H230.109ZM226.134 45.5449C223.497 48.1518 220.082 49.48 215.797 49.48V51.48C220.536 51.48 224.48 49.9922 227.54 46.9671L226.134 45.5449ZM215.845 24.184C213.945 24.184 212.37 25.0781 211.157 26.696L212.757 27.896C213.655 26.6979 214.672 26.184 215.845 26.184V24.184ZM211.148 26.7078C209.953 28.3502 209.421 30.5716 209.421 33.248H211.421C211.421 30.8044 211.912 29.0578 212.765 27.8842L211.148 26.7078ZM209.421 33.248C209.421 35.8883 209.936 38.0775 211.097 39.6888L212.72 38.5192C211.897 37.3785 211.421 35.6637 211.421 33.248H209.421ZM211.104 39.6979C212.275 41.2841 213.863 42.12 215.797 42.12V40.12C214.53 40.12 213.526 39.6119 212.713 38.5101L211.104 39.6979ZM215.797 42.12C217.765 42.12 219.373 41.2654 220.544 39.6408L218.921 38.4712C218.109 39.5986 217.093 40.12 215.797 40.12V42.12ZM220.535 39.653C221.737 38.0381 222.269 35.8263 222.269 33.152H220.269C220.269 35.5977 219.777 37.3219 218.93 38.459L220.535 39.653ZM222.269 33.152C222.269 30.4723 221.718 28.2556 220.478 26.6392L218.891 27.8568C219.763 28.9924 220.269 30.7117 220.269 33.152H222.269ZM220.487 26.651C219.299 25.0555 217.737 24.184 215.845 24.184V26.184C217.024 26.184 218.022 26.6885 218.882 27.845L220.487 26.651ZM253.011 48.752L253.981 48.5095L253.979 48.5042L253.011 48.752ZM251.427 42.56L252.395 42.3122L252.203 41.56H251.427V42.56ZM243.795 42.56V41.56H243.001L242.821 42.3323L243.795 42.56ZM242.403 48.512L241.429 48.2843L241.424 48.303L241.421 48.322L242.403 48.512ZM234.387 49.76L234.134 50.7276L234.154 50.7328L234.174 50.7372L234.387 49.76ZM233.283 49.328L232.315 49.0751L232.283 49.1994V49.328H233.283ZM241.779 16.832L242.746 17.0849L242.779 16.9606V16.832H241.779ZM254.931 16.832H253.931V16.9576L253.962 17.0792L254.931 16.832ZM263.235 49.376H264.235V49.2504L264.203 49.1288L263.235 49.376ZM261.027 49.904L260.94 48.9078L261.027 49.904ZM244.995 36.464L244.027 36.2116L243.7 37.464H244.995V36.464ZM250.035 36.464V37.464H251.275L251.012 36.2516L250.035 36.464ZM247.875 26.528L248.852 26.3156L248.68 25.528H247.875V26.528ZM247.587 26.528V25.528H246.814L246.619 26.2756L247.587 26.528ZM257.523 49.096C256.165 49.096 255.206 48.9846 254.592 48.8016C253.936 48.6062 253.96 48.4251 253.981 48.5095L252.04 48.9945C252.285 49.9749 253.173 50.4658 254.021 50.7184C254.911 50.9834 256.096 51.096 257.523 51.096V49.096ZM253.979 48.5042L252.395 42.3122L250.458 42.8078L252.042 48.9998L253.979 48.5042ZM251.427 41.56H243.795V43.56H251.427V41.56ZM242.821 42.3323L241.429 48.2843L243.376 48.7397L244.768 42.7877L242.821 42.3323ZM241.421 48.322C241.419 48.3287 241.418 48.3334 241.413 48.3411C241.408 48.3499 241.392 48.3723 241.354 48.4052C241.272 48.4761 241.105 48.5776 240.799 48.6764C240.179 48.8765 239.198 49 237.795 49V51C239.271 51 240.498 50.8755 241.414 50.5796C242.307 50.291 243.184 49.7371 243.384 48.702L241.421 48.322ZM237.795 49C236.272 49 235.225 48.919 234.599 48.7828L234.174 50.7372C235.02 50.921 236.245 51 237.795 51V49ZM234.639 48.7924C234.281 48.699 234.051 48.6268 233.923 48.5768C233.853 48.5493 233.858 48.5456 233.898 48.5714C233.916 48.5834 233.986 48.6298 234.061 48.7178C234.132 48.8012 234.283 49.0114 234.283 49.328H232.283C232.283 49.6686 232.444 49.9043 232.539 50.0147C232.636 50.1297 232.741 50.2046 232.805 50.2466C232.937 50.3324 233.08 50.3947 233.194 50.4392C233.434 50.5332 233.756 50.629 234.134 50.7276L234.639 48.7924ZM234.25 49.5809L242.746 17.0849L240.811 16.5791L232.315 49.0751L234.25 49.5809ZM242.779 16.832C242.779 17.2096 242.568 17.4456 242.463 17.5377C242.361 17.6269 242.272 17.6625 242.26 17.6677C242.227 17.6809 242.246 17.6694 242.362 17.649C242.578 17.6113 242.942 17.5738 243.481 17.5423C244.547 17.4801 246.167 17.448 248.355 17.448V15.448C246.158 15.448 244.49 15.4799 243.364 15.5457C242.807 15.5782 242.349 15.6207 242.017 15.679C241.859 15.7066 241.672 15.7471 241.503 15.8163C241.422 15.8495 241.281 15.9141 241.145 16.0333C241.006 16.1554 240.779 16.4224 240.779 16.832H242.779ZM248.355 17.448C250.542 17.448 252.162 17.4801 253.228 17.5423C253.767 17.5738 254.131 17.6113 254.347 17.649C254.463 17.6694 254.482 17.6809 254.449 17.6677C254.437 17.6625 254.348 17.6269 254.246 17.5377C254.141 17.4456 253.931 17.2096 253.931 16.832H255.931C255.931 16.4224 255.703 16.1554 255.564 16.0333C255.428 15.9141 255.287 15.8495 255.206 15.8163C255.037 15.7471 254.85 15.7066 254.692 15.679C254.36 15.6207 253.902 15.5782 253.345 15.5457C252.219 15.4799 250.551 15.448 248.355 15.448V17.448ZM253.962 17.0792L262.266 49.6232L264.203 49.1288L255.899 16.5848L253.962 17.0792ZM262.235 49.376C262.235 49.1068 262.351 48.9101 262.445 48.8023C262.529 48.7054 262.607 48.6631 262.619 48.6564C262.643 48.6435 262.605 48.6663 262.45 48.7034C262.156 48.7737 261.664 48.8448 260.94 48.9078L261.113 50.9002C261.861 50.8352 262.473 50.7543 262.915 50.6486C263.128 50.5977 263.366 50.5265 263.574 50.4136C263.71 50.3398 264.235 50.0323 264.235 49.376H262.235ZM260.94 48.9078C259.48 49.0347 258.344 49.096 257.523 49.096V51.096C258.429 51.096 259.629 51.0293 261.113 50.9002L260.94 48.9078ZM244.995 37.464H250.035V35.464H244.995V37.464ZM251.012 36.2516L248.852 26.3156L246.897 26.7404L249.057 36.6764L251.012 36.2516ZM247.875 25.528H247.587V27.528H247.875V25.528ZM246.619 26.2756L244.027 36.2116L245.962 36.7164L248.554 26.7804L246.619 26.2756ZM266.992 17.12L266.236 16.4651L266.232 16.4692L266.992 17.12ZM288.16 20.24L287.461 20.9558L287.466 20.96L288.16 20.24ZM275.632 25.52V24.52H274.632V25.52H275.632ZM275.776 41.168L274.881 41.6152L274.898 41.6496L274.918 41.6825L275.776 41.168ZM280.624 39.44L279.807 38.8625L279.802 38.8692L279.798 38.876L280.624 39.44ZM280.576 26.912L279.869 27.6191L279.875 27.6251L279.881 27.631L280.576 26.912ZM267.416 47.792V18.992H265.416V47.792H267.416ZM267.416 18.992C267.416 18.3454 267.57 17.9819 267.751 17.7708L266.232 16.4692C265.645 17.1541 265.416 18.0386 265.416 18.992H267.416ZM267.747 17.7749C267.972 17.516 268.223 17.4 268.576 17.4V15.4C267.648 15.4 266.844 15.764 266.236 16.4651L267.747 17.7749ZM268.576 17.4H276.592V15.4H268.576V17.4ZM276.592 17.4C281.521 17.4 285.087 18.6389 287.461 20.9558L288.858 19.5242C285.985 16.7211 281.838 15.4 276.592 15.4V17.4ZM287.466 20.96C289.847 23.2557 291.144 26.9705 291.144 32.336H293.144C293.144 26.6935 291.784 22.3443 288.854 19.52L287.466 20.96ZM291.144 32.336C291.144 38.1052 289.91 42.2456 287.615 44.9349C285.346 47.5938 281.896 49 277.072 49V51C282.295 51 286.381 49.4622 289.136 46.2331C291.866 43.0344 293.144 38.3428 293.144 32.336H291.144ZM277.072 49H268.864V51H277.072V49ZM268.864 49C268.178 49 267.85 48.8431 267.697 48.7054C267.564 48.5854 267.416 48.3457 267.416 47.792H265.416C265.416 48.7103 265.675 49.5746 266.358 50.1906C267.021 50.7889 267.918 51 268.864 51V49ZM274.632 25.52V39.872H276.632V25.52H274.632ZM274.632 39.872C274.632 40.2273 274.644 40.5437 274.674 40.8104C274.7 41.0487 274.75 41.353 274.881 41.6152L276.67 40.7208C276.694 40.7689 276.695 40.7889 276.687 40.7541C276.68 40.7245 276.671 40.6717 276.662 40.5896C276.643 40.4243 276.632 40.1887 276.632 39.872H274.632ZM274.918 41.6825C275.158 42.0823 275.547 42.2423 275.796 42.3115C276.063 42.3858 276.357 42.408 276.64 42.408V40.408C276.546 40.408 276.474 40.4041 276.419 40.3984C276.364 40.3926 276.337 40.386 276.331 40.3845C276.324 40.3825 276.359 40.3908 276.414 40.425C276.471 40.4611 276.56 40.5321 276.633 40.6535L274.918 41.6825ZM276.64 42.408C278.688 42.408 280.345 41.6216 281.449 40.004L279.798 38.876C279.111 39.8824 278.111 40.408 276.64 40.408V42.408ZM281.44 40.0175C282.554 38.4423 283.016 36.0013 283.016 32.912H281.016C281.016 35.9027 280.549 37.8137 279.807 38.8625L281.44 40.0175ZM283.016 32.912C283.016 31.3319 282.893 29.9786 282.628 28.8746C282.366 27.782 281.943 26.8426 281.271 26.193L279.881 27.631C280.169 27.9094 280.465 28.434 280.683 29.3414C280.898 30.2374 281.016 31.4201 281.016 32.912H283.016ZM281.283 26.2049C280.085 25.0073 278.28 24.52 276.112 24.52V26.52C278.039 26.52 279.21 26.9607 279.869 27.6191L281.283 26.2049ZM276.112 24.52H275.632V26.52H276.112V24.52Z" fill="#342200" mask="url(#path-3-outside-1_10_97)"/>
</svg>
