<svg width="52" height="52" viewBox="0 0 52 52" fill="none" xmlns="http://www.w3.org/2000/svg">
<g clip-path="url(#clip0_9_2)">
<circle cx="26" cy="26" r="26" fill="#8D1BA5"/>
<path d="M26.168 16.7686C21.0621 16.7686 16.9091 21.1563 16.9091 26.5487C16.9091 31.9424 21.0627 36.3301 26.168 36.3301C31.2726 36.3301 35.428 31.9424 35.428 26.5487C35.428 21.1563 31.2726 16.7686 26.168 16.7686ZM26.168 32.9605C22.8202 32.9605 20.0964 30.0858 20.0964 26.548C20.0964 23.0136 22.8196 20.1363 26.168 20.1363C29.5163 20.1363 32.2401 23.0136 32.2401 26.548C32.2395 30.0858 29.5144 32.9605 26.168 32.9605Z" fill="white"/>
<path d="M35.8152 13.9126C35.2001 13.9126 34.5976 14.1754 34.1644 14.6358C33.7273 15.0948 33.4773 15.7319 33.4773 16.3823C33.4773 17.0314 33.7286 17.6685 34.1644 18.1289C34.597 18.5872 35.2001 18.8514 35.8152 18.8514C36.4309 18.8514 37.0328 18.5865 37.4679 18.1289C37.9043 17.6679 38.1531 17.0294 38.1531 16.3823C38.1531 15.7312 37.9049 15.0941 37.4679 14.6358C37.0347 14.1754 36.4303 13.9126 35.8152 13.9126Z" fill="white"/>
<path d="M34.218 7.57019H18.1179C12.6507 7.57019 8.2016 12.2688 8.2016 18.0448V35.0533C8.2016 40.8286 12.6507 45.5272 18.1179 45.5272H34.218C39.6864 45.5272 44.133 40.8273 44.133 35.0533V18.0448C44.133 12.2688 39.6864 7.57019 34.218 7.57019ZM40.9457 35.0533C40.9457 38.972 37.9283 42.1602 34.2174 42.1602H18.1172C14.4076 42.1602 11.3889 38.972 11.3889 35.0533V18.0448C11.3889 14.1254 14.4076 10.9379 18.1172 10.9379H34.2174C37.9283 10.9379 40.9457 14.1254 40.9457 18.0448V35.0533Z" fill="white"/>
</g>
<defs>
<clipPath id="clip0_9_2">
<rect width="52" height="52" fill="white"/>
</clipPath>
</defs>
</svg>
