<svg width="186" height="76" viewBox="0 0 186 76" fill="none" xmlns="http://www.w3.org/2000/svg">
<mask id="path-1-inside-1_10_98" fill="white">
<path fill-rule="evenodd" clip-rule="evenodd" d="M25 11C13.2612 11 3.412 19.0907 0.724646 30H0V36V44V51C0 64.8071 11.1929 76 25 76H161C174.807 76 186 64.8071 186 51V44V36V30H185.275C182.588 19.0907 172.739 11 161 11H25Z"/>
</mask>
<path fill-rule="evenodd" clip-rule="evenodd" d="M25 11C13.2612 11 3.412 19.0907 0.724646 30H0V36V44V51C0 64.8071 11.1929 76 25 76H161C174.807 76 186 64.8071 186 51V44V36V30H185.275C182.588 19.0907 172.739 11 161 11H25Z" fill="#342200"/>
<path d="M0.724646 30V31H1.5082L1.69562 30.2392L0.724646 30ZM0 30V29H-1V30H0ZM186 30H187V29H186V30ZM185.275 30L184.304 30.2392L184.492 31H185.275V30ZM1.69562 30.2392C4.2755 19.7662 13.732 12 25 12V10C12.7903 10 2.5485 18.4152 -0.246328 29.7608L1.69562 30.2392ZM0 31H0.724646V29H0V31ZM1 36V30H-1V36H1ZM1 44V36H-1V44H1ZM1 51V44H-1V51H1ZM25 75C11.7452 75 1 64.2548 1 51H-1C-1 65.3594 10.6406 77 25 77V75ZM161 75H25V77H161V75ZM185 51C185 64.2548 174.255 75 161 75V77C175.359 77 187 65.3594 187 51H185ZM185 44V51H187V44H185ZM185 36V44H187V36H185ZM185 30V36H187V30H185ZM185.275 31H186V29H185.275V31ZM161 12C172.268 12 181.725 19.7662 184.304 30.2392L186.246 29.7608C183.452 18.4152 173.21 10 161 10V12ZM25 12H161V10H25V12Z" fill="#342200" mask="url(#path-1-inside-1_10_98)"/>
<rect x="2.5" y="2.5" width="181" height="64" rx="22.5" fill="#FEA500" stroke="#342200" stroke-width="5"/>
<mask id="path-4-outside-2_10_98" maskUnits="userSpaceOnUse" x="41" y="16" width="108" height="37" fill="black">
<rect fill="white" x="41" y="16" width="108" height="37"/>
<path d="M46.4276 51.096C43.5156 51.096 42.0596 50.776 42.0596 50.136V19.032C42.0596 17.944 42.5556 17.4 43.5476 17.4H51.9956C56.7316 17.4 60.1396 18.376 62.2196 20.328C64.3316 22.28 65.3876 25.112 65.3876 28.824C65.3876 31.896 64.3956 34.712 62.4116 37.272C61.4196 38.552 59.9636 39.576 58.0436 40.344C56.1236 41.112 53.8836 41.496 51.3236 41.496V50.088C51.3236 50.472 50.7156 50.744 49.4996 50.904C48.3156 51.032 47.2916 51.096 46.4276 51.096ZM51.3236 25.752V33.336H51.9476C53.0676 33.336 54.0116 32.984 54.7796 32.28C55.5476 31.576 55.9316 30.584 55.9316 29.304C55.9316 28.024 55.6596 27.112 55.1156 26.568C54.6036 26.024 53.6756 25.752 52.3316 25.752H51.3236ZM69.1466 48.168V18.312C69.1466 17.64 70.7626 17.304 73.9946 17.304C77.2586 17.304 78.8906 17.64 78.8906 18.312V41.832H86.2826C86.8586 41.832 87.2586 42.584 87.4826 44.088C87.5786 44.824 87.6266 45.576 87.6266 46.344C87.6266 47.112 87.5786 47.896 87.4826 48.696C87.2266 50.232 86.8106 51 86.2346 51H71.4506C70.7466 51 70.1866 50.712 69.7706 50.136C69.3546 49.56 69.1466 48.904 69.1466 48.168ZM113.046 51.096C110.262 51.096 108.758 50.648 108.534 49.752L106.95 43.56H99.3179L97.9259 49.512C97.7339 50.504 96.1979 51 93.3179 51C91.7819 51 90.6459 50.92 89.9099 50.76C89.1739 50.568 88.8059 50.424 88.8059 50.328L97.3019 17.832C97.3019 17.576 99.4939 17.448 103.878 17.448C108.262 17.448 110.454 17.576 110.454 17.832L118.758 50.376C118.758 50.6 118.022 50.776 116.55 50.904C115.078 51.032 113.91 51.096 113.046 51.096ZM100.518 37.464H105.558L103.398 27.528H103.11L100.518 37.464ZM136.721 18.984C137.137 17.864 139.185 17.304 142.865 17.304C143.793 17.304 144.881 17.368 146.129 17.496C147.409 17.624 148.001 17.784 147.905 17.976L137.921 38.04V49.752C137.921 50.296 137.041 50.68 135.281 50.904C134.385 51.032 133.505 51.096 132.641 51.096C131.777 51.096 130.913 51.048 130.049 50.952C128.289 50.728 127.409 50.328 127.409 49.752V38.328L117.089 18.072C116.961 17.88 117.617 17.704 119.057 17.544C120.497 17.352 121.713 17.256 122.705 17.256C126.641 17.256 128.801 17.832 129.185 18.984L132.689 28.776L136.721 18.984Z"/>
</mask>
<path d="M46.4276 51.096C43.5156 51.096 42.0596 50.776 42.0596 50.136V19.032C42.0596 17.944 42.5556 17.4 43.5476 17.4H51.9956C56.7316 17.4 60.1396 18.376 62.2196 20.328C64.3316 22.28 65.3876 25.112 65.3876 28.824C65.3876 31.896 64.3956 34.712 62.4116 37.272C61.4196 38.552 59.9636 39.576 58.0436 40.344C56.1236 41.112 53.8836 41.496 51.3236 41.496V50.088C51.3236 50.472 50.7156 50.744 49.4996 50.904C48.3156 51.032 47.2916 51.096 46.4276 51.096ZM51.3236 25.752V33.336H51.9476C53.0676 33.336 54.0116 32.984 54.7796 32.28C55.5476 31.576 55.9316 30.584 55.9316 29.304C55.9316 28.024 55.6596 27.112 55.1156 26.568C54.6036 26.024 53.6756 25.752 52.3316 25.752H51.3236ZM69.1466 48.168V18.312C69.1466 17.64 70.7626 17.304 73.9946 17.304C77.2586 17.304 78.8906 17.64 78.8906 18.312V41.832H86.2826C86.8586 41.832 87.2586 42.584 87.4826 44.088C87.5786 44.824 87.6266 45.576 87.6266 46.344C87.6266 47.112 87.5786 47.896 87.4826 48.696C87.2266 50.232 86.8106 51 86.2346 51H71.4506C70.7466 51 70.1866 50.712 69.7706 50.136C69.3546 49.56 69.1466 48.904 69.1466 48.168ZM113.046 51.096C110.262 51.096 108.758 50.648 108.534 49.752L106.95 43.56H99.3179L97.9259 49.512C97.7339 50.504 96.1979 51 93.3179 51C91.7819 51 90.6459 50.92 89.9099 50.76C89.1739 50.568 88.8059 50.424 88.8059 50.328L97.3019 17.832C97.3019 17.576 99.4939 17.448 103.878 17.448C108.262 17.448 110.454 17.576 110.454 17.832L118.758 50.376C118.758 50.6 118.022 50.776 116.55 50.904C115.078 51.032 113.91 51.096 113.046 51.096ZM100.518 37.464H105.558L103.398 27.528H103.11L100.518 37.464ZM136.721 18.984C137.137 17.864 139.185 17.304 142.865 17.304C143.793 17.304 144.881 17.368 146.129 17.496C147.409 17.624 148.001 17.784 147.905 17.976L137.921 38.04V49.752C137.921 50.296 137.041 50.68 135.281 50.904C134.385 51.032 133.505 51.096 132.641 51.096C131.777 51.096 130.913 51.048 130.049 50.952C128.289 50.728 127.409 50.328 127.409 49.752V38.328L117.089 18.072C116.961 17.88 117.617 17.704 119.057 17.544C120.497 17.352 121.713 17.256 122.705 17.256C126.641 17.256 128.801 17.832 129.185 18.984L132.689 28.776L136.721 18.984Z" fill="white"/>
<path d="M62.2196 20.328L61.5352 21.0572L61.5408 21.0624L62.2196 20.328ZM62.4116 37.272L63.202 37.8846L63.202 37.8846L62.4116 37.272ZM58.0436 40.344L57.6722 39.4155L57.6722 39.4155L58.0436 40.344ZM51.3236 41.496V40.496H50.3236V41.496H51.3236ZM49.4996 50.904L49.607 51.8982L49.6185 51.897L49.63 51.8955L49.4996 50.904ZM51.3236 25.752V24.752H50.3236V25.752H51.3236ZM51.3236 33.336H50.3236V34.336H51.3236V33.336ZM54.7796 32.28L55.4553 33.0172L55.4553 33.0172L54.7796 32.28ZM55.1156 26.568L54.3874 27.2534L54.3977 27.2644L54.4085 27.2751L55.1156 26.568ZM46.4276 50.096C44.9892 50.096 43.9852 50.0154 43.3662 49.8793C43.0493 49.8097 42.915 49.7422 42.883 49.7211C42.8696 49.7123 43.0596 49.8447 43.0596 50.136H41.0596C41.0596 50.7473 41.4315 51.1597 41.7821 51.3909C42.1141 51.6098 42.5258 51.7423 42.9369 51.8327C43.7739 52.0166 44.9539 52.096 46.4276 52.096V50.096ZM43.0596 50.136V19.032H41.0596V50.136H43.0596ZM43.0596 19.032C43.0596 18.6205 43.1553 18.4984 43.1705 18.4818C43.1778 18.4738 43.1935 18.4582 43.2399 18.4412C43.2921 18.4221 43.3883 18.4 43.5476 18.4V16.4C42.8724 16.4 42.1894 16.5894 41.6926 17.1342C41.2118 17.6616 41.0596 18.3555 41.0596 19.032H43.0596ZM43.5476 18.4H51.9956V16.4H43.5476V18.4ZM51.9956 18.4C56.6349 18.4 59.7302 19.3632 61.5352 21.0572L62.9039 19.5988C60.5489 17.3888 56.8283 16.4 51.9956 16.4V18.4ZM61.5408 21.0624C63.3925 22.7738 64.3876 25.3051 64.3876 28.824H66.3876C66.3876 24.9189 65.2706 21.7862 62.8983 19.5936L61.5408 21.0624ZM64.3876 28.824C64.3876 31.6616 63.4772 34.2645 61.6211 36.6594L63.202 37.8846C65.3139 35.1595 66.3876 32.1304 66.3876 28.824H64.3876ZM61.6211 36.6594C60.7645 37.7648 59.4719 38.6957 57.6722 39.4155L58.415 41.2725C60.4553 40.4563 62.0746 39.3392 63.202 37.8846L61.6211 36.6594ZM57.6722 39.4155C55.8947 40.1265 53.7856 40.496 51.3236 40.496V42.496C53.9815 42.496 56.3524 42.0975 58.415 41.2725L57.6722 39.4155ZM50.3236 41.496V50.088H52.3236V41.496H50.3236ZM50.3236 50.088C50.3236 49.8908 50.4109 49.7456 50.4761 49.6752C50.5251 49.6224 50.5429 49.6297 50.4592 49.6672C50.2888 49.7434 49.9474 49.8365 49.3691 49.9125L49.63 51.8955C50.2678 51.8115 50.8383 51.6886 51.2759 51.4928C51.6579 51.3219 52.3236 50.9105 52.3236 50.088H50.3236ZM49.3921 49.9098C48.2315 50.0353 47.2451 50.096 46.4276 50.096V52.096C47.338 52.096 48.3996 52.0287 49.607 51.8982L49.3921 49.9098ZM50.3236 25.752V33.336H52.3236V25.752H50.3236ZM51.3236 34.336H51.9476V32.336H51.3236V34.336ZM51.9476 34.336C53.2973 34.336 54.4883 33.9036 55.4553 33.0172L54.1038 31.5428C53.5348 32.0644 52.8379 32.336 51.9476 32.336V34.336ZM55.4553 33.0172C56.4758 32.0816 56.9316 30.7953 56.9316 29.304H54.9316C54.9316 30.3727 54.6193 31.0703 54.1038 31.5428L55.4553 33.0172ZM56.9316 29.304C56.9316 27.9254 56.646 26.6842 55.8227 25.8609L54.4085 27.2751C54.6732 27.5398 54.9316 28.1226 54.9316 29.304H56.9316ZM55.8438 25.8826C55.0383 25.0268 53.7482 24.752 52.3316 24.752V26.752C53.6029 26.752 54.1689 27.0212 54.3874 27.2534L55.8438 25.8826ZM52.3316 24.752H51.3236V26.752H52.3316V24.752ZM78.8906 41.832H77.8906V42.832H78.8906V41.832ZM87.4826 44.088L88.4742 43.9587L88.473 43.9497L88.4717 43.9407L87.4826 44.088ZM87.4826 48.696L88.469 48.8604L88.4727 48.8378L88.4754 48.8151L87.4826 48.696ZM69.7706 50.136L70.5812 49.5505L70.5812 49.5505L69.7706 50.136ZM70.1466 48.168V18.312H68.1466V48.168H70.1466ZM70.1466 18.312C70.1466 18.6219 69.9357 18.7464 69.9788 18.7195C70.0333 18.6855 70.2017 18.61 70.5621 18.5351C71.2665 18.3886 72.3951 18.304 73.9946 18.304V16.304C72.362 16.304 71.0666 16.3874 70.155 16.5769C69.7074 16.67 69.2698 16.8045 68.9203 17.0225C68.5594 17.2476 68.1466 17.6661 68.1466 18.312H70.1466ZM73.9946 18.304C75.6102 18.304 76.7516 18.3886 77.4649 18.5355C77.8299 18.6106 78.0021 18.6866 78.0591 18.7218C78.1062 18.7509 77.8906 18.6267 77.8906 18.312H79.8906C79.8906 17.6613 79.471 17.2431 79.1101 17.0202C78.759 16.8034 78.3192 16.6694 77.8682 16.5765C76.9496 16.3874 75.6429 16.304 73.9946 16.304V18.304ZM77.8906 18.312V41.832H79.8906V18.312H77.8906ZM78.8906 42.832H86.2826V40.832H78.8906V42.832ZM86.2826 42.832C86.0388 42.832 86.013 42.6425 86.1317 42.8656C86.2517 43.0913 86.3872 43.522 86.4935 44.2353L88.4717 43.9407C88.3539 43.15 88.1774 42.4527 87.8974 41.9264C87.6161 41.3975 87.1023 40.832 86.2826 40.832V42.832ZM86.491 44.2173C86.5812 44.909 86.6266 45.6178 86.6266 46.344H88.6266C88.6266 45.5342 88.5759 44.739 88.4742 43.9587L86.491 44.2173ZM86.6266 46.344C86.6266 47.0703 86.5812 47.8145 86.4897 48.5769L88.4754 48.8151C88.576 47.9775 88.6266 47.1537 88.6266 46.344H86.6266ZM86.4962 48.5316C86.3745 49.2619 86.2286 49.709 86.0993 49.9477C85.9672 50.1915 85.9865 50 86.2346 50V52C87.0586 52 87.5739 51.4245 87.8579 50.9003C88.1446 50.371 88.3347 49.6661 88.469 48.8604L86.4962 48.5316ZM86.2346 50H71.4506V52H86.2346V50ZM71.4506 50C71.0712 50 70.8113 49.8691 70.5812 49.5505L68.9599 50.7215C69.5618 51.5549 70.4219 52 71.4506 52V50ZM70.5812 49.5505C70.293 49.1513 70.1466 48.7018 70.1466 48.168H68.1466C68.1466 49.1062 68.4162 49.9687 68.9599 50.7215L70.5812 49.5505ZM108.534 49.752L109.504 49.5095L109.503 49.5042L108.534 49.752ZM106.95 43.56L107.919 43.3122L107.726 42.56H106.95V43.56ZM99.3179 43.56V42.56H98.5248L98.3442 43.3323L99.3179 43.56ZM97.9259 49.512L96.9522 49.2843L96.9478 49.303L96.9442 49.322L97.9259 49.512ZM89.9099 50.76L89.6575 51.7276L89.6774 51.7328L89.6975 51.7372L89.9099 50.76ZM88.8059 50.328L87.8385 50.0751L87.8059 50.1994V50.328H88.8059ZM97.3019 17.832L98.2694 18.0849L98.3019 17.9606V17.832H97.3019ZM110.454 17.832H109.454V17.9576L109.485 18.0792L110.454 17.832ZM118.758 50.376H119.758V50.2504L119.727 50.1288L118.758 50.376ZM116.55 50.904L116.463 49.9078L116.55 50.904ZM100.518 37.464L99.5503 37.2116L99.2236 38.464H100.518V37.464ZM105.558 37.464V38.464H106.799L106.535 37.2516L105.558 37.464ZM103.398 27.528L104.375 27.3156L104.204 26.528H103.398V27.528ZM103.11 27.528V26.528H102.337L102.142 27.2756L103.11 27.528ZM113.046 50.096C111.688 50.096 110.73 49.9846 110.115 49.8016C109.46 49.6062 109.483 49.4251 109.504 49.5095L107.564 49.9945C107.809 50.9749 108.696 51.4658 109.544 51.7184C110.434 51.9834 111.62 52.096 113.046 52.096V50.096ZM109.503 49.5042L107.919 43.3122L105.981 43.8078L107.565 49.9998L109.503 49.5042ZM106.95 42.56H99.3179V44.56H106.95V42.56ZM98.3442 43.3323L96.9522 49.2843L98.8997 49.7397L100.292 43.7877L98.3442 43.3323ZM96.9442 49.322C96.9429 49.3287 96.9412 49.3334 96.9366 49.3411C96.9312 49.3499 96.9157 49.3723 96.8774 49.4052C96.7951 49.4761 96.6286 49.5776 96.3226 49.6764C95.7028 49.8765 94.7218 50 93.3179 50V52C94.794 52 96.021 51.8755 96.9372 51.5796C97.8309 51.291 98.7074 50.7371 98.9077 49.702L96.9442 49.322ZM93.3179 50C91.7957 50 90.7487 49.919 90.1224 49.7828L89.6975 51.7372C90.5432 51.921 91.7682 52 93.3179 52V50ZM90.1624 49.7924C89.8045 49.699 89.5742 49.6268 89.4463 49.5768C89.3762 49.5493 89.3817 49.5456 89.4212 49.5714C89.4397 49.5834 89.5095 49.6298 89.5844 49.7178C89.6555 49.8012 89.8059 50.0114 89.8059 50.328H87.8059C87.8059 50.6686 87.9679 50.9043 88.0619 51.0147C88.1599 51.1297 88.2642 51.2046 88.3287 51.2466C88.4602 51.3324 88.6037 51.3947 88.7175 51.4392C88.9576 51.5332 89.2794 51.629 89.6575 51.7276L90.1624 49.7924ZM89.7734 50.5809L98.2694 18.0849L96.3345 17.5791L87.8385 50.0751L89.7734 50.5809ZM98.3019 17.832C98.3019 18.2096 98.0917 18.4456 97.9865 18.5377C97.8847 18.6269 97.7956 18.6625 97.7831 18.6677C97.7507 18.6809 97.769 18.6694 97.8855 18.649C98.1009 18.6113 98.4653 18.5738 99.0042 18.5423C100.07 18.4801 101.69 18.448 103.878 18.448V16.448C101.682 16.448 100.014 16.4799 98.8876 16.5457C98.3306 16.5782 97.8729 16.6207 97.5404 16.679C97.3829 16.7066 97.1957 16.7471 97.0263 16.8163C96.9453 16.8495 96.8048 16.9141 96.6687 17.0333C96.5293 17.1554 96.3019 17.4224 96.3019 17.832H98.3019ZM103.878 18.448C106.066 18.448 107.686 18.4801 108.752 18.5423C109.291 18.5738 109.655 18.6113 109.87 18.649C109.987 18.6694 110.005 18.6809 109.973 18.6677C109.96 18.6625 109.871 18.6269 109.769 18.5377C109.664 18.4456 109.454 18.2096 109.454 17.832H111.454C111.454 17.4224 111.227 17.1554 111.087 17.0333C110.951 16.9141 110.811 16.8495 110.73 16.8163C110.56 16.7471 110.373 16.7066 110.215 16.679C109.883 16.6207 109.425 16.5782 108.868 16.5457C107.742 16.4799 106.074 16.448 103.878 16.448V18.448ZM109.485 18.0792L117.789 50.6232L119.727 50.1288L111.423 17.5848L109.485 18.0792ZM117.758 50.376C117.758 50.1068 117.875 49.9101 117.968 49.8023C118.052 49.7054 118.13 49.6631 118.142 49.6564C118.166 49.6435 118.129 49.6663 117.973 49.7034C117.679 49.7737 117.187 49.8448 116.463 49.9078L116.637 51.9002C117.385 51.8352 117.996 51.7543 118.439 51.6486C118.651 51.5977 118.89 51.5265 119.097 51.4136C119.233 51.3398 119.758 51.0323 119.758 50.376H117.758ZM116.463 49.9078C115.003 50.0347 113.868 50.096 113.046 50.096V52.096C113.952 52.096 115.153 52.0293 116.637 51.9002L116.463 49.9078ZM100.518 38.464H105.558V36.464H100.518V38.464ZM106.535 37.2516L104.375 27.3156L102.421 27.7404L104.581 37.6764L106.535 37.2516ZM103.398 26.528H103.11V28.528H103.398V26.528ZM102.142 27.2756L99.5503 37.2116L101.486 37.7164L104.078 27.7804L102.142 27.2756ZM136.721 18.984L137.646 19.3647L137.653 19.3486L137.659 19.3322L136.721 18.984ZM146.129 17.496L146.027 18.4908L146.03 18.491L146.129 17.496ZM147.905 17.976L147.011 17.5288L147.01 17.5305L147.905 17.976ZM137.921 38.04L137.026 37.5945L136.921 37.8049V38.04H137.921ZM135.281 50.904L135.155 49.912L135.147 49.913L135.14 49.9141L135.281 50.904ZM130.049 50.952L129.923 51.944L129.931 51.945L129.939 51.9459L130.049 50.952ZM127.409 38.328H128.409V38.0879L128.3 37.874L127.409 38.328ZM117.089 18.072L117.98 17.618L117.954 17.5659L117.921 17.5173L117.089 18.072ZM119.057 17.544L119.168 18.5379L119.178 18.5367L119.189 18.5352L119.057 17.544ZM129.185 18.984L128.237 19.3002L128.24 19.3106L128.244 19.3209L129.185 18.984ZM132.689 28.776L131.748 29.1129L132.624 31.5613L133.614 29.1567L132.689 28.776ZM137.659 19.3322C137.691 19.2461 137.886 18.9476 138.833 18.6886C139.731 18.4431 141.059 18.304 142.865 18.304V16.304C140.991 16.304 139.456 16.4448 138.305 16.7594C137.205 17.0604 136.168 17.6019 135.784 18.6358L137.659 19.3322ZM142.865 18.304C143.75 18.304 144.802 18.3651 146.027 18.4908L146.231 16.5012C144.96 16.3709 143.837 16.304 142.865 16.304V18.304ZM146.03 18.491C146.661 18.5542 147.06 18.62 147.272 18.6774C147.398 18.7113 147.359 18.717 147.269 18.6535C147.222 18.6197 147.076 18.5076 146.985 18.2873C146.874 18.0198 146.905 17.7408 147.011 17.5288L148.8 18.4232C148.93 18.1632 148.963 17.8372 148.833 17.5237C148.723 17.2574 148.537 17.1003 148.427 17.0225C148.214 16.871 147.964 16.7926 147.794 16.7466C147.414 16.644 146.878 16.5658 146.229 16.501L146.03 18.491ZM147.01 17.5305L137.026 37.5945L138.816 38.4855L148.8 18.4215L147.01 17.5305ZM136.921 38.04V49.752H138.921V38.04H136.921ZM136.921 49.752C136.921 49.3813 137.233 49.3693 136.861 49.5315C136.553 49.6659 136.006 49.8037 135.155 49.912L135.407 51.896C136.316 51.7803 137.089 51.6141 137.661 51.3645C138.17 51.1427 138.921 50.6667 138.921 49.752H136.921ZM135.14 49.9141C134.288 50.0357 133.456 50.096 132.641 50.096V52.096C133.555 52.096 134.482 52.0283 135.423 51.8939L135.14 49.9141ZM132.641 50.096C131.814 50.096 130.987 50.0501 130.16 49.9581L129.939 51.9459C130.839 52.0459 131.74 52.096 132.641 52.096V50.096ZM130.175 49.96C129.327 49.852 128.785 49.711 128.483 49.5736C128.138 49.417 128.409 49.4247 128.409 49.752H126.409C126.409 50.6553 127.12 51.151 127.655 51.3944C128.233 51.657 129.012 51.828 129.923 51.944L130.175 49.96ZM128.409 49.752V38.328H126.409V49.752H128.409ZM128.3 37.874L117.98 17.618L116.198 18.526L126.518 38.782L128.3 37.874ZM117.921 17.5173C118.05 17.711 118.135 18.0169 118.018 18.3409C117.925 18.5977 117.754 18.7223 117.712 18.7514C117.626 18.8113 117.596 18.8016 117.744 18.7618C117.995 18.6947 118.455 18.6171 119.168 18.5379L118.947 16.5501C118.22 16.6309 117.632 16.7213 117.226 16.8302C117.046 16.8784 116.786 16.9587 116.568 17.1106C116.461 17.1857 116.247 17.3568 116.138 17.6606C116.003 18.0316 116.096 18.385 116.257 18.6267L117.921 17.5173ZM119.189 18.5352C120.604 18.3467 121.773 18.256 122.705 18.256V16.256C121.654 16.256 120.391 16.3573 118.925 16.5528L119.189 18.5352ZM122.705 18.256C124.641 18.256 126.064 18.3994 127.02 18.6542C128.039 18.9261 128.215 19.2363 128.237 19.3002L130.134 18.6678C129.771 17.5796 128.675 17.0259 127.535 16.7218C126.33 16.4006 124.705 16.256 122.705 16.256V18.256ZM128.244 19.3209L131.748 29.1129L133.631 28.4391L130.127 18.6471L128.244 19.3209ZM133.614 29.1567L137.646 19.3647L135.797 18.6032L131.765 28.3952L133.614 29.1567Z" fill="#342200" mask="url(#path-4-outside-2_10_98)"/>
</svg>
