<svg width="332" height="77" viewBox="0 0 332 77" fill="none" xmlns="http://www.w3.org/2000/svg">
<g clip-path="url(#clip0_19_104)">
<mask id="path-1-inside-1_19_104" fill="white">
<path fill-rule="evenodd" clip-rule="evenodd" d="M98 12C86.2612 12 76.412 20.0907 73.7246 31H73V37V45V52C73 65.8071 84.1929 77 98 77H234C247.807 77 259 65.8071 259 52V45V37V31H258.275C255.588 20.0907 245.739 12 234 12H98Z"/>
</mask>
<path fill-rule="evenodd" clip-rule="evenodd" d="M98 12C86.2612 12 76.412 20.0907 73.7246 31H73V37V45V52C73 65.8071 84.1929 77 98 77H234C247.807 77 259 65.8071 259 52V45V37V31H258.275C255.588 20.0907 245.739 12 234 12H98Z" fill="#342200"/>
<path d="M73.7246 31V32H74.5082L74.6956 31.2392L73.7246 31ZM73 31V30H72V31H73ZM259 31H260V30H259V31ZM258.275 31L257.304 31.2392L257.492 32H258.275V31ZM74.6956 31.2392C77.2755 20.7662 86.732 13 98 13V11C85.7903 11 75.5485 19.4152 72.7537 30.7608L74.6956 31.2392ZM73 32H73.7246V30H73V32ZM74 37V31H72V37H74ZM74 45V37H72V45H74ZM74 52V45H72V52H74ZM98 76C84.7452 76 74 65.2548 74 52H72C72 66.3594 83.6406 78 98 78V76ZM234 76H98V78H234V76ZM258 52C258 65.2548 247.255 76 234 76V78C248.359 78 260 66.3594 260 52H258ZM258 45V52H260V45H258ZM258 37V45H260V37H258ZM258 31V37H260V31H258ZM258.275 32H259V30H258.275V32ZM234 13C245.268 13 254.725 20.7662 257.304 31.2392L259.246 30.7608C256.452 19.4152 246.21 11 234 11V13ZM98 13H234V11H98V13Z" fill="#342200" mask="url(#path-1-inside-1_19_104)"/>
<rect x="75.5" y="3.5" width="181" height="64" rx="22.5" fill="#FEA500" stroke="#342200" stroke-width="5"/>
<mask id="path-4-outside-2_19_104" maskUnits="userSpaceOnUse" x="114" y="17" width="108" height="37" fill="black">
<rect fill="white" x="114" y="17" width="108" height="37"/>
<path d="M119.428 52.096C116.516 52.096 115.06 51.776 115.06 51.136V20.032C115.06 18.944 115.556 18.4 116.548 18.4H124.996C129.732 18.4 133.14 19.376 135.22 21.328C137.332 23.28 138.388 26.112 138.388 29.824C138.388 32.896 137.396 35.712 135.412 38.272C134.42 39.552 132.964 40.576 131.044 41.344C129.124 42.112 126.884 42.496 124.324 42.496V51.088C124.324 51.472 123.716 51.744 122.5 51.904C121.316 52.032 120.292 52.096 119.428 52.096ZM124.324 26.752V34.336H124.948C126.068 34.336 127.012 33.984 127.78 33.28C128.548 32.576 128.932 31.584 128.932 30.304C128.932 29.024 128.66 28.112 128.116 27.568C127.604 27.024 126.676 26.752 125.332 26.752H124.324ZM142.147 49.168V19.312C142.147 18.64 143.763 18.304 146.995 18.304C150.259 18.304 151.891 18.64 151.891 19.312V42.832H159.283C159.859 42.832 160.259 43.584 160.483 45.088C160.579 45.824 160.627 46.576 160.627 47.344C160.627 48.112 160.579 48.896 160.483 49.696C160.227 51.232 159.811 52 159.235 52H144.451C143.747 52 143.187 51.712 142.771 51.136C142.355 50.56 142.147 49.904 142.147 49.168ZM186.046 52.096C183.262 52.096 181.758 51.648 181.534 50.752L179.95 44.56H172.318L170.926 50.512C170.734 51.504 169.198 52 166.318 52C164.782 52 163.646 51.92 162.91 51.76C162.174 51.568 161.806 51.424 161.806 51.328L170.302 18.832C170.302 18.576 172.494 18.448 176.878 18.448C181.262 18.448 183.454 18.576 183.454 18.832L191.758 51.376C191.758 51.6 191.022 51.776 189.55 51.904C188.078 52.032 186.91 52.096 186.046 52.096ZM173.518 38.464H178.558L176.398 28.528H176.11L173.518 38.464ZM209.721 19.984C210.137 18.864 212.185 18.304 215.865 18.304C216.793 18.304 217.881 18.368 219.129 18.496C220.409 18.624 221.001 18.784 220.905 18.976L210.921 39.04V50.752C210.921 51.296 210.041 51.68 208.281 51.904C207.385 52.032 206.505 52.096 205.641 52.096C204.777 52.096 203.913 52.048 203.049 51.952C201.289 51.728 200.409 51.328 200.409 50.752V39.328L190.089 19.072C189.961 18.88 190.617 18.704 192.057 18.544C193.497 18.352 194.713 18.256 195.705 18.256C199.641 18.256 201.801 18.832 202.185 19.984L205.689 29.776L209.721 19.984Z"/>
</mask>
<path d="M119.428 52.096C116.516 52.096 115.06 51.776 115.06 51.136V20.032C115.06 18.944 115.556 18.4 116.548 18.4H124.996C129.732 18.4 133.14 19.376 135.22 21.328C137.332 23.28 138.388 26.112 138.388 29.824C138.388 32.896 137.396 35.712 135.412 38.272C134.42 39.552 132.964 40.576 131.044 41.344C129.124 42.112 126.884 42.496 124.324 42.496V51.088C124.324 51.472 123.716 51.744 122.5 51.904C121.316 52.032 120.292 52.096 119.428 52.096ZM124.324 26.752V34.336H124.948C126.068 34.336 127.012 33.984 127.78 33.28C128.548 32.576 128.932 31.584 128.932 30.304C128.932 29.024 128.66 28.112 128.116 27.568C127.604 27.024 126.676 26.752 125.332 26.752H124.324ZM142.147 49.168V19.312C142.147 18.64 143.763 18.304 146.995 18.304C150.259 18.304 151.891 18.64 151.891 19.312V42.832H159.283C159.859 42.832 160.259 43.584 160.483 45.088C160.579 45.824 160.627 46.576 160.627 47.344C160.627 48.112 160.579 48.896 160.483 49.696C160.227 51.232 159.811 52 159.235 52H144.451C143.747 52 143.187 51.712 142.771 51.136C142.355 50.56 142.147 49.904 142.147 49.168ZM186.046 52.096C183.262 52.096 181.758 51.648 181.534 50.752L179.95 44.56H172.318L170.926 50.512C170.734 51.504 169.198 52 166.318 52C164.782 52 163.646 51.92 162.91 51.76C162.174 51.568 161.806 51.424 161.806 51.328L170.302 18.832C170.302 18.576 172.494 18.448 176.878 18.448C181.262 18.448 183.454 18.576 183.454 18.832L191.758 51.376C191.758 51.6 191.022 51.776 189.55 51.904C188.078 52.032 186.91 52.096 186.046 52.096ZM173.518 38.464H178.558L176.398 28.528H176.11L173.518 38.464ZM209.721 19.984C210.137 18.864 212.185 18.304 215.865 18.304C216.793 18.304 217.881 18.368 219.129 18.496C220.409 18.624 221.001 18.784 220.905 18.976L210.921 39.04V50.752C210.921 51.296 210.041 51.68 208.281 51.904C207.385 52.032 206.505 52.096 205.641 52.096C204.777 52.096 203.913 52.048 203.049 51.952C201.289 51.728 200.409 51.328 200.409 50.752V39.328L190.089 19.072C189.961 18.88 190.617 18.704 192.057 18.544C193.497 18.352 194.713 18.256 195.705 18.256C199.641 18.256 201.801 18.832 202.185 19.984L205.689 29.776L209.721 19.984Z" fill="white"/>
<path d="M135.22 21.328L134.535 22.0572L134.541 22.0624L135.22 21.328ZM135.412 38.272L136.202 38.8846L136.202 38.8846L135.412 38.272ZM131.044 41.344L130.672 40.4155L130.672 40.4155L131.044 41.344ZM124.324 42.496V41.496H123.324V42.496H124.324ZM122.5 51.904L122.607 52.8982L122.619 52.897L122.63 52.8955L122.5 51.904ZM124.324 26.752V25.752H123.324V26.752H124.324ZM124.324 34.336H123.324V35.336H124.324V34.336ZM127.78 33.28L128.455 34.0172L128.455 34.0172L127.78 33.28ZM128.116 27.568L127.387 28.2534L127.398 28.2644L127.408 28.2751L128.116 27.568ZM119.428 51.096C117.989 51.096 116.985 51.0154 116.366 50.8793C116.049 50.8097 115.915 50.7422 115.883 50.7211C115.87 50.7123 116.06 50.8447 116.06 51.136H114.06C114.06 51.7473 114.432 52.1597 114.782 52.3909C115.114 52.6098 115.526 52.7423 115.937 52.8327C116.774 53.0166 117.954 53.096 119.428 53.096V51.096ZM116.06 51.136V20.032H114.06V51.136H116.06ZM116.06 20.032C116.06 19.6205 116.155 19.4984 116.171 19.4818C116.178 19.4738 116.193 19.4582 116.24 19.4412C116.292 19.4221 116.388 19.4 116.548 19.4V17.4C115.872 17.4 115.189 17.5894 114.693 18.1342C114.212 18.6616 114.06 19.3555 114.06 20.032H116.06ZM116.548 19.4H124.996V17.4H116.548V19.4ZM124.996 19.4C129.635 19.4 132.73 20.3632 134.535 22.0572L135.904 20.5988C133.549 18.3888 129.828 17.4 124.996 17.4V19.4ZM134.541 22.0624C136.393 23.7738 137.388 26.3051 137.388 29.824H139.388C139.388 25.9189 138.271 22.7862 135.898 20.5936L134.541 22.0624ZM137.388 29.824C137.388 32.6616 136.477 35.2645 134.621 37.6594L136.202 38.8846C138.314 36.1595 139.388 33.1304 139.388 29.824H137.388ZM134.621 37.6594C133.764 38.7648 132.472 39.6957 130.672 40.4155L131.415 42.2725C133.455 41.4563 135.075 40.3392 136.202 38.8846L134.621 37.6594ZM130.672 40.4155C128.895 41.1265 126.786 41.496 124.324 41.496V43.496C126.982 43.496 129.352 43.0975 131.415 42.2725L130.672 40.4155ZM123.324 42.496V51.088H125.324V42.496H123.324ZM123.324 51.088C123.324 50.8908 123.411 50.7456 123.476 50.6752C123.525 50.6224 123.543 50.6297 123.459 50.6672C123.289 50.7434 122.947 50.8365 122.369 50.9125L122.63 52.8955C123.268 52.8115 123.838 52.6886 124.276 52.4928C124.658 52.3219 125.324 51.9105 125.324 51.088H123.324ZM122.392 50.9098C121.231 51.0353 120.245 51.096 119.428 51.096V53.096C120.338 53.096 121.4 53.0287 122.607 52.8982L122.392 50.9098ZM123.324 26.752V34.336H125.324V26.752H123.324ZM124.324 35.336H124.948V33.336H124.324V35.336ZM124.948 35.336C126.297 35.336 127.488 34.9036 128.455 34.0172L127.104 32.5428C126.535 33.0644 125.838 33.336 124.948 33.336V35.336ZM128.455 34.0172C129.476 33.0816 129.932 31.7953 129.932 30.304H127.932C127.932 31.3727 127.619 32.0703 127.104 32.5428L128.455 34.0172ZM129.932 30.304C129.932 28.9254 129.646 27.6842 128.823 26.8609L127.408 28.2751C127.673 28.5398 127.932 29.1226 127.932 30.304H129.932ZM128.844 26.8826C128.038 26.0268 126.748 25.752 125.332 25.752V27.752C126.603 27.752 127.169 28.0212 127.387 28.2534L128.844 26.8826ZM125.332 25.752H124.324V27.752H125.332V25.752ZM151.891 42.832H150.891V43.832H151.891V42.832ZM160.483 45.088L161.474 44.9587L161.473 44.9497L161.472 44.9407L160.483 45.088ZM160.483 49.696L161.469 49.8604L161.473 49.8378L161.475 49.8151L160.483 49.696ZM142.771 51.136L143.581 50.5505L143.581 50.5505L142.771 51.136ZM143.147 49.168V19.312H141.147V49.168H143.147ZM143.147 19.312C143.147 19.6219 142.936 19.7464 142.979 19.7195C143.033 19.6855 143.202 19.61 143.562 19.5351C144.267 19.3886 145.395 19.304 146.995 19.304V17.304C145.362 17.304 144.067 17.3874 143.155 17.5769C142.707 17.67 142.27 17.8045 141.92 18.0225C141.559 18.2476 141.147 18.6661 141.147 19.312H143.147ZM146.995 19.304C148.61 19.304 149.752 19.3886 150.465 19.5355C150.83 19.6106 151.002 19.6866 151.059 19.7218C151.106 19.7509 150.891 19.6267 150.891 19.312H152.891C152.891 18.6613 152.471 18.2431 152.11 18.0202C151.759 17.8034 151.319 17.6694 150.868 17.5765C149.95 17.3874 148.643 17.304 146.995 17.304V19.304ZM150.891 19.312V42.832H152.891V19.312H150.891ZM151.891 43.832H159.283V41.832H151.891V43.832ZM159.283 43.832C159.039 43.832 159.013 43.6425 159.132 43.8656C159.252 44.0913 159.387 44.522 159.493 45.2353L161.472 44.9407C161.354 44.15 161.177 43.4527 160.897 42.9264C160.616 42.3975 160.102 41.832 159.283 41.832V43.832ZM159.491 45.2173C159.581 45.909 159.627 46.6178 159.627 47.344H161.627C161.627 46.5342 161.576 45.739 161.474 44.9587L159.491 45.2173ZM159.627 47.344C159.627 48.0703 159.581 48.8145 159.49 49.5769L161.475 49.8151C161.576 48.9775 161.627 48.1537 161.627 47.344H159.627ZM159.496 49.5316C159.374 50.2619 159.229 50.709 159.099 50.9477C158.967 51.1915 158.987 51 159.235 51V53C160.059 53 160.574 52.4245 160.858 51.9003C161.145 51.371 161.335 50.6661 161.469 49.8604L159.496 49.5316ZM159.235 51H144.451V53H159.235V51ZM144.451 51C144.071 51 143.811 50.8691 143.581 50.5505L141.96 51.7215C142.562 52.5549 143.422 53 144.451 53V51ZM143.581 50.5505C143.293 50.1513 143.147 49.7018 143.147 49.168H141.147C141.147 50.1062 141.416 50.9687 141.96 51.7215L143.581 50.5505ZM181.534 50.752L182.504 50.5095L182.503 50.5042L181.534 50.752ZM179.95 44.56L180.919 44.3122L180.726 43.56H179.95V44.56ZM172.318 44.56V43.56H171.525L171.344 44.3323L172.318 44.56ZM170.926 50.512L169.952 50.2843L169.948 50.303L169.944 50.322L170.926 50.512ZM162.91 51.76L162.658 52.7276L162.677 52.7328L162.698 52.7372L162.91 51.76ZM161.806 51.328L160.838 51.0751L160.806 51.1994V51.328H161.806ZM170.302 18.832L171.269 19.0849L171.302 18.9606V18.832H170.302ZM183.454 18.832H182.454V18.9576L182.485 19.0792L183.454 18.832ZM191.758 51.376H192.758V51.2504L192.727 51.1288L191.758 51.376ZM189.55 51.904L189.463 50.9078L189.55 51.904ZM173.518 38.464L172.55 38.2116L172.224 39.464H173.518V38.464ZM178.558 38.464V39.464H179.799L179.535 38.2516L178.558 38.464ZM176.398 28.528L177.375 28.3156L177.204 27.528H176.398V28.528ZM176.11 28.528V27.528H175.337L175.142 28.2756L176.11 28.528ZM186.046 51.096C184.688 51.096 183.73 50.9846 183.115 50.8016C182.46 50.6062 182.483 50.4251 182.504 50.5095L180.564 50.9945C180.809 51.9749 181.696 52.4658 182.544 52.7184C183.434 52.9834 184.62 53.096 186.046 53.096V51.096ZM182.503 50.5042L180.919 44.3122L178.981 44.8078L180.565 50.9998L182.503 50.5042ZM179.95 43.56H172.318V45.56H179.95V43.56ZM171.344 44.3323L169.952 50.2843L171.9 50.7397L173.292 44.7877L171.344 44.3323ZM169.944 50.322C169.943 50.3287 169.941 50.3334 169.937 50.3411C169.931 50.3499 169.916 50.3723 169.877 50.4052C169.795 50.4761 169.629 50.5776 169.323 50.6764C168.703 50.8765 167.722 51 166.318 51V53C167.794 53 169.021 52.8755 169.937 52.5796C170.831 52.291 171.707 51.7371 171.908 50.702L169.944 50.322ZM166.318 51C164.796 51 163.749 50.919 163.122 50.7828L162.698 52.7372C163.543 52.921 164.768 53 166.318 53V51ZM163.162 50.7924C162.804 50.699 162.574 50.6268 162.446 50.5768C162.376 50.5493 162.382 50.5456 162.421 50.5714C162.44 50.5834 162.509 50.6298 162.584 50.7178C162.656 50.8012 162.806 51.0114 162.806 51.328H160.806C160.806 51.6686 160.968 51.9043 161.062 52.0147C161.16 52.1297 161.264 52.2046 161.329 52.2466C161.46 52.3324 161.604 52.3947 161.718 52.4392C161.958 52.5332 162.279 52.629 162.658 52.7276L163.162 50.7924ZM162.773 51.5809L171.269 19.0849L169.334 18.5791L160.838 51.0751L162.773 51.5809ZM171.302 18.832C171.302 19.2096 171.092 19.4456 170.987 19.5377C170.885 19.6269 170.796 19.6625 170.783 19.6677C170.751 19.6809 170.769 19.6694 170.885 19.649C171.101 19.6113 171.465 19.5738 172.004 19.5423C173.07 19.4801 174.69 19.448 176.878 19.448V17.448C174.682 17.448 173.014 17.4799 171.888 17.5457C171.331 17.5782 170.873 17.6207 170.54 17.679C170.383 17.7066 170.196 17.7471 170.026 17.8163C169.945 17.8495 169.805 17.9141 169.669 18.0333C169.529 18.1554 169.302 18.4224 169.302 18.832H171.302ZM176.878 19.448C179.066 19.448 180.686 19.4801 181.752 19.5423C182.291 19.5738 182.655 19.6113 182.87 19.649C182.987 19.6694 183.005 19.6809 182.973 19.6677C182.96 19.6625 182.871 19.6269 182.769 19.5377C182.664 19.4456 182.454 19.2096 182.454 18.832H184.454C184.454 18.4224 184.227 18.1554 184.087 18.0333C183.951 17.9141 183.811 17.8495 183.73 17.8163C183.56 17.7471 183.373 17.7066 183.215 17.679C182.883 17.6207 182.425 17.5782 181.868 17.5457C180.742 17.4799 179.074 17.448 176.878 17.448V19.448ZM182.485 19.0792L190.789 51.6232L192.727 51.1288L184.423 18.5848L182.485 19.0792ZM190.758 51.376C190.758 51.1068 190.875 50.9101 190.968 50.8023C191.052 50.7054 191.13 50.6631 191.142 50.6564C191.166 50.6435 191.129 50.6663 190.973 50.7034C190.679 50.7737 190.187 50.8448 189.463 50.9078L189.637 52.9002C190.385 52.8352 190.996 52.7543 191.439 52.6486C191.651 52.5977 191.89 52.5265 192.097 52.4136C192.233 52.3398 192.758 52.0323 192.758 51.376H190.758ZM189.463 50.9078C188.003 51.0347 186.868 51.096 186.046 51.096V53.096C186.952 53.096 188.153 53.0293 189.637 52.9002L189.463 50.9078ZM173.518 39.464H178.558V37.464H173.518V39.464ZM179.535 38.2516L177.375 28.3156L175.421 28.7404L177.581 38.6764L179.535 38.2516ZM176.398 27.528H176.11V29.528H176.398V27.528ZM175.142 28.2756L172.55 38.2116L174.486 38.7164L177.078 28.7804L175.142 28.2756ZM209.721 19.984L210.646 20.3647L210.653 20.3486L210.659 20.3322L209.721 19.984ZM219.129 18.496L219.027 19.4908L219.03 19.491L219.129 18.496ZM220.905 18.976L220.011 18.5288L220.01 18.5305L220.905 18.976ZM210.921 39.04L210.026 38.5945L209.921 38.8049V39.04H210.921ZM208.281 51.904L208.155 50.912L208.147 50.913L208.14 50.9141L208.281 51.904ZM203.049 51.952L202.923 52.944L202.931 52.945L202.939 52.9459L203.049 51.952ZM200.409 39.328H201.409V39.0879L201.3 38.874L200.409 39.328ZM190.089 19.072L190.98 18.618L190.954 18.5659L190.921 18.5173L190.089 19.072ZM192.057 18.544L192.168 19.5379L192.178 19.5367L192.189 19.5352L192.057 18.544ZM202.185 19.984L201.237 20.3002L201.24 20.3106L201.244 20.3209L202.185 19.984ZM205.689 29.776L204.748 30.1129L205.624 32.5613L206.614 30.1567L205.689 29.776ZM210.659 20.3322C210.691 20.2461 210.886 19.9476 211.833 19.6886C212.731 19.4431 214.059 19.304 215.865 19.304V17.304C213.991 17.304 212.456 17.4448 211.305 17.7594C210.205 18.0604 209.168 18.6019 208.784 19.6358L210.659 20.3322ZM215.865 19.304C216.75 19.304 217.802 19.3651 219.027 19.4908L219.231 17.5012C217.96 17.3709 216.837 17.304 215.865 17.304V19.304ZM219.03 19.491C219.661 19.5542 220.06 19.62 220.272 19.6774C220.398 19.7113 220.359 19.717 220.269 19.6535C220.222 19.6197 220.076 19.5076 219.985 19.2873C219.874 19.0198 219.905 18.7408 220.011 18.5288L221.8 19.4232C221.93 19.1632 221.963 18.8372 221.833 18.5237C221.723 18.2574 221.537 18.1003 221.427 18.0225C221.214 17.871 220.964 17.7926 220.794 17.7466C220.414 17.644 219.878 17.5658 219.229 17.501L219.03 19.491ZM220.01 18.5305L210.026 38.5945L211.816 39.4855L221.8 19.4215L220.01 18.5305ZM209.921 39.04V50.752H211.921V39.04H209.921ZM209.921 50.752C209.921 50.3813 210.233 50.3693 209.861 50.5315C209.553 50.6659 209.006 50.8037 208.155 50.912L208.407 52.896C209.316 52.7803 210.089 52.6141 210.661 52.3645C211.17 52.1427 211.921 51.6667 211.921 50.752H209.921ZM208.14 50.9141C207.288 51.0357 206.456 51.096 205.641 51.096V53.096C206.555 53.096 207.482 53.0283 208.423 52.8939L208.14 50.9141ZM205.641 51.096C204.814 51.096 203.987 51.0501 203.16 50.9581L202.939 52.9459C203.839 53.0459 204.74 53.096 205.641 53.096V51.096ZM203.175 50.96C202.327 50.852 201.785 50.711 201.483 50.5736C201.138 50.417 201.409 50.4247 201.409 50.752H199.409C199.409 51.6553 200.12 52.151 200.655 52.3944C201.233 52.657 202.012 52.828 202.923 52.944L203.175 50.96ZM201.409 50.752V39.328H199.409V50.752H201.409ZM201.3 38.874L190.98 18.618L189.198 19.526L199.518 39.782L201.3 38.874ZM190.921 18.5173C191.05 18.711 191.135 19.0169 191.018 19.3409C190.925 19.5977 190.754 19.7223 190.712 19.7514C190.626 19.8113 190.596 19.8016 190.744 19.7618C190.995 19.6947 191.455 19.6171 192.168 19.5379L191.947 17.5501C191.22 17.6309 190.632 17.7213 190.226 17.8302C190.046 17.8784 189.786 17.9587 189.568 18.1106C189.461 18.1857 189.247 18.3568 189.138 18.6606C189.003 19.0316 189.096 19.385 189.257 19.6267L190.921 18.5173ZM192.189 19.5352C193.604 19.3467 194.773 19.256 195.705 19.256V17.256C194.654 17.256 193.391 17.3573 191.925 17.5528L192.189 19.5352ZM195.705 19.256C197.641 19.256 199.064 19.3994 200.02 19.6542C201.039 19.9261 201.215 20.2363 201.237 20.3002L203.134 19.6678C202.771 18.5796 201.675 18.0259 200.535 17.7218C199.33 17.4006 197.705 17.256 195.705 17.256V19.256ZM201.244 20.3209L204.748 30.1129L206.631 29.4391L203.127 19.6471L201.244 20.3209ZM206.614 30.1567L210.646 20.3647L208.797 19.6032L204.765 29.3952L206.614 30.1567Z" fill="#342200" mask="url(#path-4-outside-2_19_104)"/>
<path d="M10.1872 41.7838C19.1186 55.3583 32.1974 56.49 41.811 55.8241C39.9801 56.7906 41.516 60.8525 41.013 62.6535C40.51 64.4545 43.5 64.5486 45.3734 63.3399C56.8732 55.9202 72.7922 44.7296 63.1778 42.9633C52.6441 41.0282 39.9181 33.0247 35.549 30.1303C35.3394 30.8808 34.6342 32.7416 33.4902 34.1817C32.0602 35.9818 32.2888 35.3289 33.0334 37.3114C33.6291 38.8973 37.8896 43.6838 40.8086 45.2406C38.2339 46.6567 34.4527 48.465 21.8603 39.4986C6.11982 28.2907 10.0162 15.336 10.7919 13.1309C11.2344 11.8732 14.2821 6.28779 17.2133 3.01299L21.4545 -0.249481L16.7547 0.67054L11.7628 5.75433L7.31645 12.5511C4.88 16.8548 1.25568 28.2092 10.1872 41.7838Z" fill="#342200"/>
</g>
<defs>
<clipPath id="clip0_19_104">
<rect width="332" height="77" fill="white"/>
</clipPath>
</defs>
</svg>
